<?xml version="1.0" encoding="UTF-8" standalone="no"?>
<svg
   xmlns:dc="http://purl.org/dc/elements/1.1/"
   xmlns:cc="http://creativecommons.org/ns#"
   xmlns:rdf="http://www.w3.org/1999/02/22-rdf-syntax-ns#"
   xmlns:svg="http://www.w3.org/2000/svg"
   xmlns="http://www.w3.org/2000/svg"
   xmlns:sodipodi="http://sodipodi.sourceforge.net/DTD/sodipodi-0.dtd"
   xmlns:inkscape="http://www.inkscape.org/namespaces/inkscape"
   inkscape:version="1.0 (4035a4fb49, 2020-05-01)"
   sodipodi:docname="calculator.svg"
   id="svg121"
   version="1.1"
   viewBox="0 0 400 300">
  <metadata
     id="metadata127">
    <rdf:RDF>
      <cc:Work
         rdf:about="">
        <dc:format>image/svg+xml</dc:format>
        <dc:type
           rdf:resource="http://purl.org/dc/dcmitype/StillImage" />
      </cc:Work>
    </rdf:RDF>
  </metadata>
  <defs
     id="defs125" />
  <sodipodi:namedview
     inkscape:current-layer="svg121"
     inkscape:window-maximized="1"
     inkscape:window-y="-8"
     inkscape:window-x="-8"
     inkscape:cy="150"
     inkscape:cx="200"
     inkscape:zoom="2.5475"
     showgrid="false"
     id="namedview123"
     inkscape:window-height="1017"
     inkscape:window-width="1920"
     inkscape:pageshadow="2"
     inkscape:pageopacity="0"
     guidetolerance="10"
     gridtolerance="10"
     objecttolerance="10"
     borderopacity="1"
     bordercolor="#666666"
     pagecolor="#ffffff" />
  <g
     style="stroke-width:0.571134"
     transform="matrix(1.8408709,0,0,1.665327,-242.36456,-99.146845)"
     data-name="#551_calculator_outline"
     id="_551_calculator_outline">
    <rect
       ry="5.5064263"
       style="stroke-width:0.353111"
       id="rect2"
       fill="#093f68"
       rx="4.9813385"
       height="165.98"
       width="133.28999"
       y="72.5"
       x="133.35001" />
    <path
       style="stroke-width:0.353111"
       id="path4"
       fill="#093f68"
       d="m 257.48,239.48 h -115 A 10.19,10.19 0 0 1 132.31,229.31 V 81.67 A 10.19,10.19 0 0 1 142.52,71.5 h 115 a 10.19,10.19 0 0 1 10.17,10.17 v 147.64 a 10.19,10.19 0 0 1 -10.21,10.17 z m -115,-166 a 8.19,8.19 0 0 0 -8.17,8.17 v 147.66 a 8.18,8.18 0 0 0 8.17,8.17 h 115 a 8.18,8.18 0 0 0 8.17,-8.17 V 81.67 a 8.19,8.19 0 0 0 -8.17,-8.17 z" />
    <rect
       ry="5.5064263"
       style="stroke-width:0.353111"
       id="rect6"
       fill="#68e1fd"
       rx="4.9813385"
       height="165.98"
       width="133.28999"
       y="61.52"
       x="133.35001" />
    <path
       style="stroke-width:0.353111"
       id="path8"
       fill="#093f68"
       d="m 257.48,228.5 h -115 A 10.19,10.19 0 0 1 132.31,218.33 V 70.69 a 10.19,10.19 0 0 1 10.17,-10.17 h 115 a 10.19,10.19 0 0 1 10.17,10.17 v 147.64 a 10.19,10.19 0 0 1 -10.17,10.17 z m -115,-166 a 8.18,8.18 0 0 0 -8.17,8.17 v 147.66 a 8.19,8.19 0 0 0 8.17,8.17 h 115 a 8.19,8.19 0 0 0 8.17,-8.17 V 70.69 a 8.18,8.18 0 0 0 -8.17,-8.17 z" />
    <rect
       ry="1.2069702"
       style="stroke-width:0.353111"
       id="rect10"
       fill="#ffbc0e"
       rx="1.0918745"
       height="23.24"
       width="23.24"
       y="105.93"
       x="143.32001" />
    <path
       style="stroke-width:0.353111"
       id="path12"
       fill="#093f68"
       d="m 164.55,130.17 h -19.22 a 3,3 0 0 1 -3,-3 v -19.23 a 3,3 0 0 1 3,-3 h 19.22 a 3,3 0 0 1 3,3 v 19.22 a 3,3 0 0 1 -3,3.01 z m -19.22,-23.24 a 1,1 0 0 0 -1,1 v 19.22 a 1,1 0 0 0 1,1 h 19.22 a 1,1 0 0 0 1,-1 v -19.21 a 1,1 0 0 0 -1,-1 z" />
    <path
       style="stroke-width:0.353111"
       id="path14"
       fill="#093f68"
       d="m 156.17,113.32 h -4.74 v -1.88 h 7 v 1.79 l -3.84,7.82 h -2.37 z" />
    <rect
       ry="1.2069702"
       style="stroke-width:0.353111"
       id="rect16"
       fill="#ffbc0e"
       rx="1.0918745"
       height="23.24"
       width="23.24"
       y="105.93"
       x="173.25" />
    <path
       style="stroke-width:0.353111"
       id="path18"
       fill="#093f68"
       d="m 194.48,130.17 h -19.23 a 3,3 0 0 1 -3,-3 v -19.23 a 3,3 0 0 1 3,-3 h 19.23 a 3,3 0 0 1 3,3 v 19.22 a 3,3 0 0 1 -3,3.01 z m -19.23,-23.24 a 1,1 0 0 0 -1,1 v 19.22 a 1,1 0 0 0 1,1 h 19.23 a 1,1 0 0 0 1,-1 v -19.21 a 1,1 0 0 0 -1,-1 z" />
    <path
       style="stroke-width:0.353111"
       id="path20"
       fill="#093f68"
       d="m 181.65,115.23 a 2.48,2.48 0 0 1 0.25,-1.16 2.42,2.42 0 0 1 0.69,-0.83 3.18,3.18 0 0 1 1,-0.5 5,5 0 0 1 1.25,-0.16 4.89,4.89 0 0 1 1.24,0.16 3,3 0 0 1 1,0.5 2.42,2.42 0 0 1 0.69,0.83 2.37,2.37 0 0 1 0.26,1.16 2.11,2.11 0 0 1 -0.43,1.34 2.29,2.29 0 0 1 -1.2,0.79 v 0 a 2.34,2.34 0 0 1 1.33,0.83 2.37,2.37 0 0 1 0.46,1.5 2.64,2.64 0 0 1 -0.27,1.22 2.77,2.77 0 0 1 -0.75,0.88 3.39,3.39 0 0 1 -1.08,0.52 4.87,4.87 0 0 1 -2.55,0 3.39,3.39 0 0 1 -1.08,-0.52 2.62,2.62 0 0 1 -0.74,-0.88 2.53,2.53 0 0 1 -0.28,-1.22 2.24,2.24 0 0 1 1.79,-2.33 v 0 a 2.29,2.29 0 0 1 -1.2,-0.79 2.11,2.11 0 0 1 -0.38,-1.34 z m 1.87,4.2 a 1.17,1.17 0 0 0 0.37,0.86 1.53,1.53 0 0 0 2,0 1.14,1.14 0 0 0 0.37,-0.86 1.12,1.12 0 0 0 -0.37,-0.86 1.5,1.5 0 0 0 -2,0 1.16,1.16 0 0 0 -0.37,0.86 z m 0.17,-3.92 a 1,1 0 0 0 0.32,0.76 1.33,1.33 0 0 0 1.71,0 1,1 0 0 0 0.33,-0.76 1,1 0 0 0 -0.33,-0.74 1.3,1.3 0 0 0 -1.71,0 1,1 0 0 0 -0.32,0.74 z" />
    <rect
       ry="1.2069702"
       style="stroke-width:0.353111"
       id="rect22"
       fill="#ffbc0e"
       rx="1.0918745"
       height="23.24"
       width="23.24"
       y="105.93"
       x="203.17" />
    <path
       style="stroke-width:0.353111"
       id="path24"
       fill="#093f68"
       d="m 224.41,130.17 h -19.23 a 3,3 0 0 1 -3,-3 v -19.23 a 3,3 0 0 1 3,-3 h 19.23 a 3,3 0 0 1 3,3 v 19.22 a 3,3 0 0 1 -3,3.01 z m -19.23,-23.24 a 1,1 0 0 0 -1,1 v 19.22 a 1,1 0 0 0 1,1 h 19.23 a 1,1 0 0 0 1,-1 v -19.21 a 1,1 0 0 0 -1,-1 z" />
    <path
       style="stroke-width:0.353111"
       id="path26"
       fill="#093f68"
       d="m 214.89,119 -0.33,0.07 a 1.88,1.88 0 0 1 -0.34,0 3.07,3.07 0 0 1 -1.23,-0.24 2.79,2.79 0 0 1 -1,-0.66 3,3 0 0 1 -0.61,-1 3.39,3.39 0 0 1 -0.22,-1.23 3.11,3.11 0 0 1 0.28,-1.35 3.14,3.14 0 0 1 0.76,-1 3.46,3.46 0 0 1 1.13,-0.67 4.26,4.26 0 0 1 2.82,0 3.4,3.4 0 0 1 1.14,0.67 3.15,3.15 0 0 1 1,2.39 4.52,4.52 0 0 1 -0.1,0.94 4.8,4.8 0 0 1 -0.25,0.81 5,5 0 0 1 -0.37,0.73 l -0.44,0.71 -2.1,3.28 h -2.48 z m -1.64,-3 a 1.46,1.46 0 0 0 0.42,1.08 1.51,1.51 0 0 0 1.12,0.43 1.49,1.49 0 0 0 1.12,-0.43 1.43,1.43 0 0 0 0.43,-1.08 1.46,1.46 0 0 0 -0.43,-1.08 1.52,1.52 0 0 0 -1.12,-0.42 1.54,1.54 0 0 0 -1.12,0.42 1.49,1.49 0 0 0 -0.42,1.08 z" />
    <rect
       ry="1.2069702"
       style="stroke-width:0.353111"
       id="rect28"
       fill="#ffbc0e"
       rx="1.0918745"
       height="23.24"
       width="23.24"
       y="105.93"
       x="233.10001" />
    <path
       style="stroke-width:0.353111"
       id="path30"
       fill="#093f68"
       d="m 254.33,130.17 h -19.22 a 3,3 0 0 1 -3,-3 v -19.23 a 3,3 0 0 1 3,-3 h 19.22 a 3,3 0 0 1 3,3 v 19.22 a 3,3 0 0 1 -3,3.01 z m -19.22,-23.24 a 1,1 0 0 0 -1,1 v 19.22 a 1,1 0 0 0 1,1 h 19.22 a 1,1 0 0 0 1,-1 v -19.21 a 1,1 0 0 0 -1,-1 z" />
    <rect
       ry="1.2069702"
       style="stroke-width:0.353111"
       id="rect32"
       fill="#ffbc0e"
       rx="1.0918745"
       height="23.24"
       width="23.24"
       y="134.25999"
       x="143.32001" />
    <path
       style="stroke-width:0.353111"
       id="path34"
       fill="#093f68"
       d="m 164.55,158.5 h -19.22 a 3,3 0 0 1 -3,-3 v -19.23 a 3,3 0 0 1 3,-3 h 19.22 a 3,3 0 0 1 3,3 v 19.23 a 3,3 0 0 1 -3,3 z m -19.22,-23.24 a 1,1 0 0 0 -1,1 v 19.24 a 1,1 0 0 0 1,1 h 19.22 a 1,1 0 0 0 1,-1 v -19.23 a 1,1 0 0 0 -1,-1 z" />
    <path
       style="stroke-width:0.353111"
       id="path36"
       fill="#093f68"
       d="m 155.44,148.76 h -4.19 v -1.71 l 3.92,-6 h 2.23 v 6 h 1.23 v 1.71 h -1.23 v 1.93 h -2 z m 0,-5 v 0 l -2.13,3.31 h 2.16 z" />
    <rect
       ry="1.2069702"
       style="stroke-width:0.353111"
       id="rect38"
       fill="#ffbc0e"
       rx="1.0918745"
       height="23.24"
       width="23.24"
       y="134.25999"
       x="173.25" />
    <path
       style="stroke-width:0.353111"
       id="path40"
       fill="#093f68"
       d="m 194.48,158.5 h -19.23 a 3,3 0 0 1 -3,-3 v -19.23 a 3,3 0 0 1 3,-3 h 19.23 a 3,3 0 0 1 3,3 v 19.23 a 3,3 0 0 1 -3,3 z m -19.23,-23.24 a 1,1 0 0 0 -1,1 v 19.24 a 1,1 0 0 0 1,1 h 19.23 a 1,1 0 0 0 1,-1 v -19.23 a 1,1 0 0 0 -1,-1 z" />
    <path
       style="stroke-width:0.353111"
       id="path42"
       fill="#093f68"
       d="m 188,142.79 h -3.81 v 1.48 a 2.76,2.76 0 0 1 0.86,-0.11 3.88,3.88 0 0 1 1.34,0.22 2.78,2.78 0 0 1 1,0.63 3,3 0 0 1 0.69,1 3.85,3.85 0 0 1 0,2.78 3.09,3.09 0 0 1 -0.77,1.08 3.4,3.4 0 0 1 -1.16,0.67 4.5,4.5 0 0 1 -1.45,0.23 3.49,3.49 0 0 1 -2.09,-0.61 3.15,3.15 0 0 1 -1.16,-1.85 l 2.13,-0.49 a 1.38,1.38 0 0 0 0.44,0.84 1.27,1.27 0 0 0 0.88,0.32 1.39,1.39 0 0 0 1,-0.41 1.43,1.43 0 0 0 0.38,-1 1.41,1.41 0 0 0 -0.19,-0.78 1.44,1.44 0 0 0 -0.52,-0.49 2.07,2.07 0 0 0 -0.71,-0.25 4.22,4.22 0 0 0 -0.79,-0.07 5,5 0 0 0 -1,0.1 7.39,7.39 0 0 0 -1,0.25 l 0.11,-5.3 H 188 Z" />
    <rect
       ry="1.2069702"
       style="stroke-width:0.353111"
       id="rect44"
       fill="#ffbc0e"
       rx="1.0918745"
       height="23.24"
       width="23.24"
       y="134.25999"
       x="203.17" />
    <path
       style="stroke-width:0.353111"
       id="path46"
       fill="#093f68"
       d="m 224.41,158.5 h -19.23 a 3,3 0 0 1 -3,-3 v -19.23 a 3,3 0 0 1 3,-3 h 19.23 a 3,3 0 0 1 3,3 v 19.23 a 3,3 0 0 1 -3,3 z m -19.23,-23.24 a 1,1 0 0 0 -1,1 v 19.24 a 1,1 0 0 0 1,1 h 19.23 a 1,1 0 0 0 1,-1 v -19.23 a 1,1 0 0 0 -1,-1 z" />
    <path
       style="stroke-width:0.353111"
       id="path48"
       fill="#093f68"
       d="m 214.7,144.43 0.32,-0.07 h 0.34 a 3.08,3.08 0 0 1 1.24,0.24 2.94,2.94 0 0 1 1,0.66 3.27,3.27 0 0 1 0.61,1 3.62,3.62 0 0 1 0.22,1.23 3.15,3.15 0 0 1 -1,2.39 3.4,3.4 0 0 1 -1.14,0.67 4.26,4.26 0 0 1 -2.82,0 3.46,3.46 0 0 1 -1.13,-0.67 3.29,3.29 0 0 1 -0.76,-1 3.11,3.11 0 0 1 -0.28,-1.35 3.93,3.93 0 0 1 0.1,-0.94 4,4 0 0 1 0.25,-0.81 5.49,5.49 0 0 1 0.36,-0.73 l 0.44,-0.71 2.11,-3.28 H 217 Z m 1.64,3 a 1.45,1.45 0 0 0 -0.43,-1.08 1.53,1.53 0 0 0 -1.12,-0.43 1.55,1.55 0 0 0 -1.12,0.43 1.48,1.48 0 0 0 -0.42,1.08 1.49,1.49 0 0 0 0.42,1.08 1.55,1.55 0 0 0 1.12,0.43 1.53,1.53 0 0 0 1.12,-0.43 1.46,1.46 0 0 0 0.43,-1.12 z" />
    <rect
       ry="1.2069702"
       style="stroke-width:0.353111"
       id="rect50"
       fill="#ffbc0e"
       rx="1.0918745"
       height="23.24"
       width="23.24"
       y="134.25999"
       x="233.10001" />
    <path
       style="stroke-width:0.353111"
       id="path52"
       fill="#093f68"
       d="m 254.33,158.5 h -19.22 a 3,3 0 0 1 -3,-3 v -19.23 a 3,3 0 0 1 3,-3 h 19.22 a 3,3 0 0 1 3,3 v 19.23 a 3,3 0 0 1 -3,3 z m -19.22,-23.24 a 1,1 0 0 0 -1,1 v 19.24 a 1,1 0 0 0 1,1 h 19.22 a 1,1 0 0 0 1,-1 v -19.23 a 1,1 0 0 0 -1,-1 z" />
    <rect
       ry="1.2069702"
       style="stroke-width:0.353111"
       id="rect54"
       fill="#ffbc0e"
       rx="1.0918745"
       height="23.24"
       width="23.24"
       y="162.60001"
       x="143.32001" />
    <path
       style="stroke-width:0.353111"
       id="path56"
       fill="#093f68"
       d="m 164.55,186.84 h -19.22 a 3,3 0 0 1 -3,-3 v -19.23 a 3,3 0 0 1 3,-3 h 19.22 a 3,3 0 0 1 3,3 v 19.22 a 3,3 0 0 1 -3,3.01 z M 145.33,163.6 a 1,1 0 0 0 -1,1 v 19.22 a 1,1 0 0 0 1,1 h 19.22 a 1,1 0 0 0 1,-1 v -19.21 a 1,1 0 0 0 -1,-1 z" />
    <path
       style="stroke-width:0.353111"
       id="path58"
       fill="#093f68"
       d="m 155.5,171.69 -1.92,1.7 -1.16,-1.33 3.14,-2.65 h 1.9 V 179 h -2 z" />
    <rect
       ry="1.2069702"
       style="stroke-width:0.353111"
       id="rect60"
       fill="#ffbc0e"
       rx="1.0918745"
       height="23.24"
       width="23.24"
       y="162.60001"
       x="173.25" />
    <path
       style="stroke-width:0.353111"
       id="path62"
       fill="#093f68"
       d="m 194.48,186.84 h -19.23 a 3,3 0 0 1 -3,-3 v -19.23 a 3,3 0 0 1 3,-3 h 19.23 a 3,3 0 0 1 3,3 v 19.22 a 3,3 0 0 1 -3,3.01 z M 175.25,163.6 a 1,1 0 0 0 -1,1 v 19.22 a 1,1 0 0 0 1,1 h 19.23 a 1,1 0 0 0 1,-1 v -19.21 a 1,1 0 0 0 -1,-1 z" />
    <path
       style="stroke-width:0.353111"
       id="path64"
       fill="#093f68"
       d="m 181.51,177 3.74,-3.36 a 6.29,6.29 0 0 0 0.57,-0.58 1.12,1.12 0 0 0 0.28,-0.76 0.94,0.94 0 0 0 -0.35,-0.77 1.33,1.33 0 0 0 -0.83,-0.27 1.12,1.12 0 0 0 -0.89,0.35 1.43,1.43 0 0 0 -0.36,0.87 l -2,-0.15 A 3.23,3.23 0 0 1 182,171 a 2.69,2.69 0 0 1 0.72,-0.91 2.93,2.93 0 0 1 1.05,-0.55 4.23,4.23 0 0 1 1.31,-0.19 3.76,3.76 0 0 1 1.22,0.19 2.79,2.79 0 0 1 1,0.54 2.51,2.51 0 0 1 0.66,0.9 3.08,3.08 0 0 1 0.24,1.26 3.58,3.58 0 0 1 -0.1,0.84 2.91,2.91 0 0 1 -0.26,0.68 3.78,3.78 0 0 1 -0.4,0.56 6,6 0 0 1 -0.51,0.5 l -2.93,2.49 h 4.26 v 1.79 h -6.71 z" />
    <rect
       ry="1.2069702"
       style="stroke-width:0.353111"
       id="rect66"
       fill="#ffbc0e"
       rx="1.0918745"
       height="23.24"
       width="23.24"
       y="162.60001"
       x="203.17" />
    <path
       style="stroke-width:0.353111"
       id="path68"
       fill="#093f68"
       d="m 224.41,186.84 h -19.23 a 3,3 0 0 1 -3,-3 v -19.23 a 3,3 0 0 1 3,-3 h 19.23 a 3,3 0 0 1 3,3 v 19.22 a 3,3 0 0 1 -3,3.01 z M 205.18,163.6 a 1,1 0 0 0 -1,1 v 19.22 a 1,1 0 0 0 1,1 h 19.23 a 1,1 0 0 0 1,-1 v -19.21 a 1,1 0 0 0 -1,-1 z" />
    <path
       style="stroke-width:0.353111"
       id="path70"
       fill="#093f68"
       d="m 213.84,173.2 h 0.66 a 3.43,3.43 0 0 0 0.56,0 1.57,1.57 0 0 0 0.49,-0.16 0.86,0.86 0 0 0 0.36,-0.32 1,1 0 0 0 0.14,-0.55 0.9,0.9 0 0 0 -0.35,-0.72 1.29,1.29 0 0 0 -0.85,-0.29 1.2,1.2 0 0 0 -0.78,0.26 1.17,1.17 0 0 0 -0.41,0.64 l -2.24,-0.46 a 3.1,3.1 0 0 1 0.49,-1.07 2.87,2.87 0 0 1 0.77,-0.71 3.55,3.55 0 0 1 1,-0.4 4.85,4.85 0 0 1 1.16,-0.13 4.51,4.51 0 0 1 1.23,0.16 2.85,2.85 0 0 1 1,0.49 2.37,2.37 0 0 1 1,2 2.26,2.26 0 0 1 -0.42,1.38 1.91,1.91 0 0 1 -1.22,0.73 v 0 a 1.76,1.76 0 0 1 0.77,0.26 1.92,1.92 0 0 1 0.56,0.5 2,2 0 0 1 0.35,0.68 2.36,2.36 0 0 1 0.13,0.8 2.78,2.78 0 0 1 -0.28,1.26 2.74,2.74 0 0 1 -0.75,0.9 3.23,3.23 0 0 1 -1.1,0.54 4.8,4.8 0 0 1 -1.33,0.17 4,4 0 0 1 -2.22,-0.59 2.92,2.92 0 0 1 -1.23,-1.89 l 2.14,-0.5 a 1.52,1.52 0 0 0 0.44,0.81 1.45,1.45 0 0 0 1,0.3 1.15,1.15 0 0 0 1.3,-1.23 1,1 0 0 0 -0.17,-0.63 1.07,1.07 0 0 0 -0.44,-0.34 A 2.19,2.19 0 0 0 215,175 h -0.68 -0.47 z" />
    <rect
       ry="1.2069702"
       style="stroke-width:0.353111"
       id="rect72"
       fill="#ffbc0e"
       rx="1.0918745"
       height="23.24"
       width="23.24"
       y="162.60001"
       x="233.10001" />
    <path
       style="stroke-width:0.353111"
       id="path74"
       fill="#093f68"
       d="m 254.33,186.84 h -19.22 a 3,3 0 0 1 -3,-3 v -19.23 a 3,3 0 0 1 3,-3 h 19.22 a 3,3 0 0 1 3,3 v 19.22 a 3,3 0 0 1 -3,3.01 z M 235.11,163.6 a 1,1 0 0 0 -1,1 v 19.22 a 1,1 0 0 0 1,1 h 19.22 a 1,1 0 0 0 1,-1 v -19.21 a 1,1 0 0 0 -1,-1 z" />
    <rect
       ry="1.2069702"
       style="stroke-width:0.353111"
       id="rect76"
       fill="#ffbc0e"
       rx="1.0918745"
       height="23.24"
       width="23.24"
       y="190.92999"
       x="143.32001" />
    <path
       style="stroke-width:0.353111"
       id="path78"
       fill="#093f68"
       d="m 164.55,215.17 h -19.22 a 3,3 0 0 1 -3,-3 v -19.23 a 3,3 0 0 1 3,-3 h 19.22 a 3,3 0 0 1 3,3 v 19.23 a 3,3 0 0 1 -3,3 z m -19.22,-23.24 a 1,1 0 0 0 -1,1 v 19.23 a 1,1 0 0 0 1,1 h 19.22 a 1,1 0 0 0 1,-1 v -19.22 a 1,1 0 0 0 -1,-1 z" />
    <path
       style="stroke-width:0.353111"
       id="path80"
       fill="#093f68"
       d="m 151.37,201.25 a 9.47,9.47 0 0 1 0.16,-1.74 5.22,5.22 0 0 1 0.55,-1.6 3.25,3.25 0 0 1 1.1,-1.17 3.67,3.67 0 0 1 3.52,0 3.33,3.33 0 0 1 1.1,1.17 5.22,5.22 0 0 1 0.55,1.6 9.54,9.54 0 0 1 0,3.48 5.13,5.13 0 0 1 -0.55,1.6 3.33,3.33 0 0 1 -1.1,1.17 3.6,3.6 0 0 1 -3.52,0 3.25,3.25 0 0 1 -1.1,-1.17 5.13,5.13 0 0 1 -0.55,-1.6 9.47,9.47 0 0 1 -0.16,-1.74 z m 2,0 c 0,0.26 0,0.56 0,0.91 a 4.36,4.36 0 0 0 0.18,1 2.17,2.17 0 0 0 0.46,0.83 1.25,1.25 0 0 0 1.71,0 2.19,2.19 0 0 0 0.47,-0.83 5,5 0 0 0 0.18,-1 c 0,-0.35 0,-0.65 0,-0.91 0,-0.26 0,-0.55 0,-0.91 a 5,5 0 0 0 -0.18,-1 2.08,2.08 0 0 0 -0.47,-0.82 1.25,1.25 0 0 0 -1.71,0 2.06,2.06 0 0 0 -0.46,0.82 4.36,4.36 0 0 0 -0.18,1 c 0.05,0.36 0.04,0.66 0.04,0.91 z" />
    <rect
       ry="1.2069702"
       style="stroke-width:0.353111"
       id="rect82"
       fill="#ffbc0e"
       rx="1.0918745"
       height="23.24"
       width="23.24"
       y="190.92999"
       x="173.25" />
    <path
       style="stroke-width:0.353111"
       id="path84"
       fill="#093f68"
       d="m 194.48,215.17 h -19.23 a 3,3 0 0 1 -3,-3 v -19.23 a 3,3 0 0 1 3,-3 h 19.23 a 3,3 0 0 1 3,3 v 19.23 a 3,3 0 0 1 -3,3 z m -19.23,-23.24 a 1,1 0 0 0 -1,1 v 19.23 a 1,1 0 0 0 1,1 h 19.23 a 1,1 0 0 0 1,-1 v -19.22 a 1,1 0 0 0 -1,-1 z" />
    <rect
       ry="1.2069702"
       style="stroke-width:0.353111"
       id="rect86"
       fill="#ffbc0e"
       rx="1.0918745"
       height="23.24"
       width="23.24"
       y="190.92999"
       x="203.17" />
    <path
       style="stroke-width:0.353111"
       id="path88"
       fill="#093f68"
       d="m 224.41,215.17 h -19.23 a 3,3 0 0 1 -3,-3 v -19.23 a 3,3 0 0 1 3,-3 h 19.23 a 3,3 0 0 1 3,3 v 19.23 a 3,3 0 0 1 -3,3 z m -19.23,-23.24 a 1,1 0 0 0 -1,1 v 19.23 a 1,1 0 0 0 1,1 h 19.23 a 1,1 0 0 0 1,-1 v -19.22 a 1,1 0 0 0 -1,-1 z" />
    <rect
       ry="1.2069702"
       style="stroke-width:0.353111"
       id="rect90"
       fill="#ffbc0e"
       rx="1.0918745"
       height="23.24"
       width="23.24"
       y="190.92999"
       x="233.10001" />
    <path
       style="stroke-width:0.353111"
       id="path92"
       fill="#093f68"
       d="m 254.33,215.17 h -19.22 a 3,3 0 0 1 -3,-3 v -19.23 a 3,3 0 0 1 3,-3 h 19.22 a 3,3 0 0 1 3,3 v 19.23 a 3,3 0 0 1 -3,3 z m -19.22,-23.24 a 1,1 0 0 0 -1,1 v 19.23 a 1,1 0 0 0 1,1 h 19.22 a 1,1 0 0 0 1,-1 v -19.22 a 1,1 0 0 0 -1,-1 z" />
    <circle
       style="stroke-width:0.353111"
       id="circle94"
       fill="#093f68"
       r="2.23"
       cy="202.5"
       cx="184.87" />
    <path
       style="stroke-width:0.353111"
       id="path96"
       fill="#093f68"
       d="m 240.48,122.87 a 1,1 0 0 1 -0.72,-1.7 l 8.49,-8.65 a 1,1 0 0 1 1.42,0 1,1 0 0 1 0,1.41 l -8.49,8.65 a 1,1 0 0 1 -0.7,0.29 z" />
    <path
       style="stroke-width:0.353111"
       id="path98"
       fill="#093f68"
       d="m 240.48,151.21 a 1,1 0 0 1 -0.71,-0.29 1,1 0 0 1 0,-1.41 l 8.49,-8.65 a 1.0006123,1.0006123 0 1 1 1.43,1.4 l -8.49,8.65 a 1,1 0 0 1 -0.72,0.3 z" />
    <path
       style="stroke-width:0.353111"
       id="path100"
       fill="#093f68"
       d="m 249,151.21 a 1,1 0 0 1 -0.72,-0.3 l -8.49,-8.65 a 1.0006123,1.0006123 0 1 1 1.43,-1.4 l 8.49,8.65 a 1,1 0 0 1 0,1.41 1,1 0 0 1 -0.71,0.29 z" />
    <path
       style="stroke-width:0.353111"
       id="path102"
       fill="#093f68"
       d="m 249.07,175.22 h -8.7 a 1,1 0 0 1 0,-2 h 8.7 a 1,1 0 0 1 0,2 z" />
    <path
       style="stroke-width:0.353111"
       id="path104"
       fill="#093f68"
       d="m 249.07,200.66 h -8.7 a 1,1 0 0 1 0,-2 h 8.7 a 1,1 0 0 1 0,2 z" />
    <path
       style="stroke-width:0.353111"
       id="path106"
       fill="#093f68"
       d="m 249.07,206.44 h -8.7 a 1,1 0 0 1 0,-2 h 8.7 a 1,1 0 0 1 0,2 z" />
    <path
       style="stroke-width:0.353111"
       id="path108"
       fill="#093f68"
       d="m 219.14,203.55 h -8.7 a 1,1 0 0 1 0,-2 h 8.7 a 1,1 0 0 1 0,2 z" />
    <path
       style="stroke-width:0.353111"
       id="path110"
       fill="#093f68"
       d="m 214.79,207.9 a 1,1 0 0 1 -1,-1 v -8.7 a 1,1 0 0 1 2,0 v 8.7 a 1,1 0 0 1 -1,1 z" />
    <rect
       style="stroke-width:0.353111"
       id="rect112"
       fill="#f56132"
       height="26.02"
       width="113.02"
       y="71.260002"
       x="143.32001" />
    <path
       style="stroke-width:0.353111"
       id="path114"
       fill="#093f68"
       d="m 256.34,98.28 h -113 a 1,1 0 0 1 -1,-1 v -26 a 1,1 0 0 1 1,-1 h 113 a 1,1 0 0 1 1,1 v 26 a 1,1 0 0 1 -1,1 z m -112,-2 h 111 v -24 h -111 z" />
    <path
       style="stroke-width:0.353111"
       id="path116"
       fill="#ffffff"
       d="m 244.4,93.33 h -4.13 A 3.31,3.31 0 0 1 237,90 V 78.09 a 3.32,3.32 0 0 1 3.31,-3.32 h 4.13 a 3.32,3.32 0 0 1 3.31,3.32 V 90 a 3.32,3.32 0 0 1 -3.35,3.33 z M 240.27,76.77 A 1.31,1.31 0 0 0 239,78.09 V 90 a 1.31,1.31 0 0 0 1.31,1.31 h 4.13 A 1.31,1.31 0 0 0 245.71,90 V 78.09 a 1.32,1.32 0 0 0 -1.31,-1.32 z" />
    <path
       style="stroke-width:0.353111"
       id="path118"
       fill="#ffffff"
       d="m 246.26,92.38 a 1,1 0 0 1 -0.85,-0.47 l -8.3,-13.29 a 1,1 0 1 1 1.69,-1.06 l 8.31,13.29 a 1,1 0 0 1 -0.32,1.38 1,1 0 0 1 -0.53,0.15 z" />
  </g>
</svg>
