<?xml version="1.0" encoding="UTF-8" standalone="no"?>
<svg
   xmlns:dc="http://purl.org/dc/elements/1.1/"
   xmlns:cc="http://creativecommons.org/ns#"
   xmlns:rdf="http://www.w3.org/1999/02/22-rdf-syntax-ns#"
   xmlns:svg="http://www.w3.org/2000/svg"
   xmlns="http://www.w3.org/2000/svg"
   xmlns:sodipodi="http://sodipodi.sourceforge.net/DTD/sodipodi-0.dtd"
   xmlns:inkscape="http://www.inkscape.org/namespaces/inkscape"
   inkscape:version="1.0 (4035a4fb49, 2020-05-01)"
   sodipodi:docname="competition.svg"
   id="svg173"
   version="1.1"
   viewBox="0 0 400 300">
  <metadata
     id="metadata179">
    <rdf:RDF>
      <cc:Work
         rdf:about="">
        <dc:format>image/svg+xml</dc:format>
        <dc:type
           rdf:resource="http://purl.org/dc/dcmitype/StillImage" />
      </cc:Work>
    </rdf:RDF>
  </metadata>
  <defs
     id="defs177" />
  <sodipodi:namedview
     inkscape:current-layer="svg173"
     inkscape:window-maximized="1"
     inkscape:window-y="-8"
     inkscape:window-x="-8"
     inkscape:cy="150"
     inkscape:cx="200"
     inkscape:zoom="2.5475"
     showgrid="false"
     id="namedview175"
     inkscape:window-height="1017"
     inkscape:window-width="1920"
     inkscape:pageshadow="2"
     inkscape:pageopacity="0"
     guidetolerance="10"
     gridtolerance="10"
     objecttolerance="10"
     borderopacity="1"
     bordercolor="#666666"
     pagecolor="#ffffff" />
  <g
     style="stroke-width:0.728342"
     transform="matrix(1.2514949,0,0,1.5062594,-53.72813,-97.842983)"
     data-name="#315_competition_flatline"
     id="_315_competition_flatline">
    <ellipse
       style="stroke-width:0.555261"
       id="ellipse2"
       fill="#d1d3d4"
       ry="2.52"
       rx="67.330002"
       cy="222.53"
       cx="123.95" />
    <ellipse
       style="stroke-width:0.555261"
       id="ellipse4"
       fill="#d1d3d4"
       ry="2.52"
       rx="58.77"
       cy="222.53"
       cx="278.12" />
    <path
       style="stroke-width:0.555261"
       id="path6"
       fill="#ffffff"
       d="m 314.09,209.16 c 0,0 -4.17,7.43 -3.76,7.43 H 319 l 5.28,-7.43 z" />
    <path
       style="stroke-width:0.555261"
       id="path8"
       fill="#231f20"
       d="m 319,217.09 h -8.62 a 0.54,0.54 0 0 1 -0.45,-0.26 c -0.17,-0.28 -0.34,-0.58 3.77,-7.91 a 0.49,0.49 0 0 1 0.43,-0.26 h 10.15 a 0.52,0.52 0 0 1 0.44,0.27 0.49,0.49 0 0 1 0,0.52 l -5.28,7.43 a 0.49,0.49 0 0 1 -0.44,0.21 z m -8,-1 h 7.7 l 4.57,-6.43 h -8.88 C 313,212.2 311.5,215 311,216.09 Z" />
    <path
       style="stroke-width:0.555261"
       id="path10"
       fill="#231f20"
       d="m 292.55,171.26 35.38,8 -16.56,33.3 11.49,0.86 c 0,0 25.95,-32.92 22.43,-38.29 C 341.77,169.76 319.08,157 319.08,157 l -21.94,5.55 z" />
    <path
       style="stroke-width:0.555261"
       id="path12"
       fill="#231f20"
       d="m 322.86,213.92 v 0 l -11.5,-0.86 a 0.5,0.5 0 0 1 -0.4,-0.25 0.52,0.52 0 0 1 0,-0.47 l 16.28,-32.73 -34.76,-7.86 a 0.5,0.5 0 0 1 -0.34,-0.72 l 4.6,-8.71 a 0.5,0.5 0 0 1 0.32,-0.25 L 319,156.51 a 0.53,0.53 0 0 1 0.37,0.05 c 0.93,0.53 22.84,12.89 26.38,18.3 3.54,5.41 -19.78,35.47 -22.46,38.87 a 0.49,0.49 0 0 1 -0.43,0.19 z m -10.71,-1.8 10.48,0.78 c 10.33,-13.13 24.67,-33.8 22.25,-37.5 -3.26,-5 -23.76,-16.67 -25.87,-17.87 l -21.53,5.47 -4.19,7.94 34.71,7.83 a 0.51,0.51 0 0 1 0.34,0.28 0.47,0.47 0 0 1 0,0.43 z" />
    <path
       style="stroke-width:0.555261"
       id="path14"
       fill="#231f20"
       d="m 310.33,216.59 -3.75,5.52 c 0,0 21.09,0.09 21.1,-0.65 0.01,-0.74 -8.73,-4.87 -8.73,-4.87 z" />
    <path
       style="stroke-width:0.555261"
       id="path16"
       fill="#231f20"
       d="m 310.31,222.62 h -3.73 a 0.5,0.5 0 0 1 -0.41,-0.78 l 3.75,-5.52 a 0.49,0.49 0 0 1 0.41,-0.22 H 319 a 0.54,0.54 0 0 1 0.21,0 c 9,4.26 9,5 9,5.33 -0.04,0.57 -0.05,1.19 -17.9,1.19 z m 16.92,-1 z m -19.7,0 c 6.69,0 16.43,-0.09 19.18,-0.41 a 82,82 0 0 0 -7.88,-4.12 h -8.23 z" />
    <path
       style="stroke-width:0.555261"
       id="path18"
       fill="#ffffff"
       d="m 267.44,130.36 -16.94,8.15 c 0,0 -8.54,1.1 -9.63,2.56 -1.09,1.46 -1.58,4.3 0.06,5.24 1.64,0.94 7.28,-0.32 7.28,-0.32 l 26.88,-10.15 z" />
    <path
       style="stroke-width:0.555261"
       id="path20"
       fill="#231f20"
       d="m 243,147.15 a 4.92,4.92 0 0 1 -2.32,-0.41 2.59,2.59 0 0 1 -1.23,-1.79 5.63,5.63 0 0 1 1,-4.18 c 1.14,-1.53 8.26,-2.53 9.89,-2.74 l 16.86,-8.12 a 0.49,0.49 0 0 1 0.51,0.05 l 7.65,5.47 a 0.52,0.52 0 0 1 0.21,0.47 0.52,0.52 0 0 1 -0.32,0.41 l -26.89,10.15 a 29,29 0 0 1 -5.36,0.69 z m 24.39,-16.21 -16.67,8 h -0.16 c -3.45,0.44 -8.62,1.47 -9.28,2.36 a 4.68,4.68 0 0 0 -0.85,3.37 1.59,1.59 0 0 0 0.75,1.13 c 1.07,0.62 4.81,0.1 6.92,-0.37 L 274,135.7 Z m -16.89,7.57 z" />
    <path
       style="stroke-width:0.555261"
       id="path22"
       fill="#68e1fd"
       d="m 260,142 -5.92,-8.39 c 0,0 51,-23.59 51.78,-22.74 0.78,0.85 0,20.55 0,20.55 z" />
    <polygon
       style="stroke-width:0.555261"
       id="polygon24"
       fill="#ffffff"
       points="165.82,213.5 158.69,205.37 155.13,212.11 160.47,216.97 " />
    <path
       style="stroke-width:0.555261"
       id="path26"
       fill="#231f20"
       d="m 160.47,217.47 a 0.46,0.46 0 0 1 -0.33,-0.13 l -5.35,-4.86 a 0.5,0.5 0 0 1 -0.11,-0.6 l 3.57,-6.74 a 0.5,0.5 0 0 1 0.38,-0.27 0.52,0.52 0 0 1 0.44,0.17 l 7.13,8.13 a 0.53,0.53 0 0 1 0.12,0.4 0.51,0.51 0 0 1 -0.22,0.35 l -5.35,3.47 a 0.48,0.48 0 0 1 -0.28,0.08 z m -4.72,-5.47 4.78,4.34 4.54,-2.94 -6.28,-7.15 z" />
    <path
       style="stroke-width:0.555261"
       id="path28"
       fill="#ffffff"
       d="m 70.66,207.25 c -0.14,0.42 -4.58,4.72 -4.58,4.72 l 6.2,4.17 4.36,-4.45 z" />
    <path
       style="stroke-width:0.555261"
       id="path30"
       fill="#231f20"
       d="M 72.28,216.64 A 0.6,0.6 0 0 1 72,216.56 l -6.2,-4.17 a 0.49,0.49 0 0 1 -0.22,-0.37 0.53,0.53 0 0 1 0.15,-0.41 c 2,-2 4.27,-4.23 4.48,-4.57 a 0.43,0.43 0 0 1 0.31,-0.29 0.47,0.47 0 0 1 0.44,0.1 l 6,4.44 a 0.52,0.52 0 0 1 0.19,0.37 A 0.46,0.46 0 0 1 77,212 l -4.35,4.45 a 0.51,0.51 0 0 1 -0.37,0.19 z m -5.41,-4.74 5.35,3.59 3.66,-3.74 -5.12,-3.81 c -0.46,0.54 -1.5,1.64 -3.89,3.96 z" />
    <path
       style="stroke-width:0.555261"
       id="path32"
       fill="#231f20"
       d="m 82.89,157.8 6.61,24.26 -21.19,25.74 7.86,6.3 c 0,0 33.16,-25.55 33,-28.15 -0.16,-2.6 -3,-13.92 -3,-13.92 l 48.78,42.07 7.6,-5.55 -50.05,-60.19 z" />
    <path
       style="stroke-width:0.555261"
       id="path34"
       fill="#231f20"
       d="m 154.89,214.6 a 0.49,0.49 0 0 1 -0.32,-0.12 l -47.6,-41 c 0.79,3.2 2.53,10.42 2.67,12.48 0.19,2.66 -25.34,22.55 -33.16,28.58 a 0.5,0.5 0 0 1 -0.62,0 L 68,208.19 a 0.49,0.49 0 0 1 -0.19,-0.33 0.53,0.53 0 0 1 0.11,-0.37 l 21,-25.55 -6.54,-24 a 0.51,0.51 0 0 1 0.33,-0.61 l 29.56,-9.45 a 0.51,0.51 0 0 1 0.54,0.16 l 50,60.19 a 0.51,0.51 0 0 1 0.12,0.38 0.5,0.5 0 0 1 -0.21,0.34 l -7.59,5.56 a 0.53,0.53 0 0 1 -0.24,0.09 z M 69,207.73 l 7.16,5.74 C 88.69,203.81 108.32,188 108.65,186 c -0.19,-2.5 -3,-13.69 -3,-13.8 a 0.5,0.5 0 0 1 0.23,-0.55 0.48,0.48 0 0 1 0.59,0 l 48.48,41.8 6.84,-5 -49.49,-59.52 -28.8,9.2 6.5,23.8 a 0.53,0.53 0 0 1 -0.1,0.45 z" />
    <path
       style="stroke-width:0.555261"
       id="path36"
       fill="#ffffff"
       d="m 112.35,135 19.86,5.7 c 0,0 7,-2.35 8.42,-1.17 1.42,1.18 4.18,4.86 2.79,6.15 -1.39,1.29 -8.56,1.25 -8.56,1.25 L 106.11,142 Z" />
    <path
       style="stroke-width:0.555261"
       id="path38"
       fill="#231f20"
       d="m 135,147.42 h -0.11 L 106,142.53 a 0.51,0.51 0 0 1 -0.39,-0.33 0.49,0.49 0 0 1 0.1,-0.5 l 6.23,-7 a 0.53,0.53 0 0 1 0.52,-0.15 l 19.71,5.66 c 1.51,-0.5 7.28,-2.29 8.76,-1 1.11,1 3.3,3.62 3.34,5.51 a 1.77,1.77 0 0 1 -0.54,1.38 c -1.41,1.26 -7.63,1.32 -8.73,1.32 z m -27.89,-5.73 27.89,4.74 v 0 c 2.62,0 7.19,-0.3 8.09,-1.13 a 0.82,0.82 0 0 0 0.22,-0.63 c 0,-1.36 -1.82,-3.77 -3,-4.77 -0.73,-0.61 -4.69,0.18 -7.94,1.26 a 0.41,0.41 0 0 1 -0.29,0 l -19.57,-5.61 z" />
    <path
       style="stroke-width:0.555261"
       id="path40"
       fill="#68e1fd"
       d="m 104.08,127.12 c 0,0 13.92,7.18 13.92,7.88 0,0.7 -5.53,8.45 -5.53,8.45 l -8,-2.87 z" />
    <path
       style="stroke-width:0.555261"
       id="path42"
       fill="#68e1fd"
       d="m 82.1,110.5 c -2.11,0.17 -4.39,0.25 -6,1.07 -4.75,2.38 -4,9 -3.12,13.21 2.31,11.16 6.55,22.11 10,33 0,0 24.93,-1.35 29.55,-9.44 0,0 -6.63,-32.89 -9.69,-36.41 -3.06,-3.52 -13,-2.7 -18.38,-1.71 a 22.13,22.13 0 0 1 -2.36,0.28 z" />
    <path
       style="stroke-width:0.555261"
       id="path44"
       fill="#231f20"
       d="m 112,146 c -0.81,-6.28 -9.2,-34 -9.2,-34" />
    <path
       style="stroke-width:0.555261"
       id="path46"
       fill="#231f20"
       d="m 112,146.45 a 0.5,0.5 0 0 1 -0.5,-0.43 c -0.79,-6.18 -9.09,-33.65 -9.18,-33.93 a 0.5192302,0.5192302 0 0 1 1,-0.28 c 0.34,1.13 8.41,27.82 9.21,34.08 a 0.5,0.5 0 0 1 -0.43,0.56 z" />
    <path
       style="stroke-width:0.555261"
       id="path48"
       fill="#68e1fd"
       d="m 74.6,113.54 c 0,0 -19.91,26.47 -19.08,29 0.83,2.53 16.76,5.42 16.76,5.42 l 4.51,-8.81 -5.57,-2.72 9.9,-15.84 z" />
    <path
       style="stroke-width:0.555261"
       id="path50"
       fill="#231f20"
       d="m 71.22,136.9 a 0.47,0.47 0 0 1 -0.27,-0.08 0.51,0.51 0 0 1 -0.16,-0.69 L 80.7,120.3 a 0.49,0.49 0 0 1 0.69,-0.16 0.51,0.51 0 0 1 0.16,0.69 l -9.91,15.83 a 0.48,0.48 0 0 1 -0.42,0.24 z" />
    <path
       style="stroke-width:0.555261"
       id="path52"
       fill="#ffffff"
       d="m 84.76,108.38 c -5.53,2.08 -9.29,-7.42 -10.27,-11.63 a 7.47,7.47 0 0 1 -0.22,-2.82 6.44,6.44 0 0 1 3.18,-4.22 41.11,41.11 0 0 1 5,-2.25 24.16,24.16 0 0 0 9.45,-7.54 c 0.83,-1.11 1.78,-2.41 3.16,-2.45 a 3,3 0 0 1 2.27,1.2 6.18,6.18 0 0 1 0.87,6 c -0.74,2.07 -2.29,3.38 -3.86,4.78 1.12,1.21 1.63,1.49 1.57,3.14 a 13.38,13.38 0 0 1 -1.24,4.41 32.68,32.68 0 0 1 -2.49,4.18 c -1.88,2.93 -3.77,5.67 -7.15,7.1 z" />
    <path
       style="stroke-width:0.555261"
       id="path54"
       fill="#231f20"
       d="m 83.2,109.18 a 4.93,4.93 0 0 1 -2.31,-0.61 c -3.76,-2 -6.15,-8.54 -6.89,-11.71 a 8.23,8.23 0 0 1 -0.23,-3 7,7 0 0 1 3.42,-4.56 21.25,21.25 0 0 1 3.45,-1.63 L 82.2,87 a 23.62,23.62 0 0 0 9.26,-7.39 c 0.89,-1.2 2,-2.61 3.55,-2.65 a 3.53,3.53 0 0 1 2.66,1.38 6.66,6.66 0 0 1 1,6.43 11.5,11.5 0 0 1 -3.67,4.66 v 0 a 3.48,3.48 0 0 1 1.3,3.08 14.1,14.1 0 0 1 -1.24,4.63 24.57,24.57 0 0 1 -1.95,3.36 c -0.2,0.29 -0.39,0.59 -0.58,0.89 -2,3.13 -3.95,5.84 -7.38,7.29 l -0.29,0.12 a 4.82,4.82 0 0 1 -1.66,0.38 z M 95.07,78 v 0 c -1.11,0 -2,1.17 -2.72,2.18 a 24.66,24.66 0 0 1 -9.7,7.77 q -0.8,0.35 -1.59,0.66 A 21.42,21.42 0 0 0 77.75,90.17 5.93,5.93 0 0 0 74.76,94 7,7 0 0 0 75,96.64 c 0.81,3.5 3.18,9.34 6.38,11 a 3.69,3.69 0 0 0 3.22,0.22 v 0 l 0.25,-0.1 c 3.18,-1.34 4.94,-3.81 6.92,-6.91 0.2,-0.3 0.4,-0.6 0.59,-0.9 a 21.36,21.36 0 0 0 1.87,-3.22 12.81,12.81 0 0 0 1.16,-4.26 2.48,2.48 0 0 0 -1,-2.34 L 93.98,89.69 A 0.5,0.5 0 0 1 94,89 l 0.25,-0.22 A 10.91,10.91 0 0 0 97.71,84.42 5.66,5.66 0 0 0 96.91,79 2.54,2.54 0 0 0 95.07,78 Z" />
    <path
       style="stroke-width:0.555261"
       id="path56"
       fill="#ffffff"
       d="m 96.05,97.45 c 0,0 3,3.77 2.51,4.64 -0.49,0.87 -2.34,0.49 -2.34,0.49" />
    <path
       style="stroke-width:0.555261"
       id="path58"
       fill="#231f20"
       d="m 97.11,103.17 a 5.13,5.13 0 0 1 -1,-0.1 0.5,0.5 0 0 1 -0.38,-0.6 0.49,0.49 0 0 1 0.59,-0.38 c 0.63,0.13 1.6,0.12 1.79,-0.24 0.19,-0.36 -1.07,-2.33 -2.46,-4.09 a 0.49,0.49 0 0 1 0.08,-0.7 0.5,0.5 0 0 1 0.7,0.08 c 1.19,1.5 3.11,4.17 2.56,5.19 a 2,2 0 0 1 -1.88,0.84 z" />
    <path
       style="stroke-width:0.555261"
       id="path60"
       fill="#ffffff"
       d="m 94.46,88.72 c 1.8,1.23 2.13,7.67 2.28,9.56 q 0.32,4 0.45,8 c 0.06,1.68 -4.3,2.1 -5.11,1.66 l 1.26,6.59 c 0,0 -2,0.76 -5.7,-0.56 -3.7,-1.32 -3.76,-2.15 -3.76,-2.15 l -0.38,-7.7 c 0,0 2.88,-0.23 4.29,-3.81 1.41,-3.58 0.87,-8.84 0.87,-8.84 0,0 4.04,-3.94 5.8,-2.75 z" />
    <path
       style="stroke-width:0.555261"
       id="path62"
       fill="#231f20"
       d="m 91.66,115.23 a 12.6,12.6 0 0 1 -4.19,-0.81 c -3.43,-1.24 -4,-2.14 -4.09,-2.56 L 83,104.12 a 0.5,0.5 0 0 1 0.46,-0.52 c 0.11,0 2.6,-0.27 3.86,-3.49 1.34,-3.42 0.85,-8.56 0.84,-8.61 a 0.53,0.53 0 0 1 0.15,-0.41 c 0.44,-0.43 4.4,-4.17 6.43,-2.78 v 0 c 1.64,1.12 2.17,5.39 2.46,9.42 v 0.51 c 0.21,2.64 0.36,5.33 0.45,8 a 1.7,1.7 0 0 1 -1,1.51 7.67,7.67 0 0 1 -4,0.82 l 1.12,5.85 a 0.49,0.49 0 0 1 -0.32,0.56 5.53,5.53 0 0 1 -1.79,0.25 z m -7.28,-3.55 c 0.11,0.15 0.73,0.82 3.43,1.8 a 9.88,9.88 0 0 0 5,0.66 L 91.59,108 a 0.51,0.51 0 0 1 0.19,-0.5 0.52,0.52 0 0 1 0.54,0 6.41,6.41 0 0 0 3.89,-0.58 q 0.5,-0.3 0.48,-0.63 c -0.09,-2.65 -0.24,-5.33 -0.45,-8 v -0.51 c -0.14,-1.89 -0.56,-7.67 -2,-8.66 v 0 c -1,-0.64 -3.43,1 -5,2.51 0.09,1.1 0.34,5.58 -0.93,8.83 a 6.18,6.18 0 0 1 -4.23,4 z" />
    <path
       style="stroke-width:0.555261"
       id="path64"
       fill="#ffffff"
       d="m 97,104.28 a 6.87,6.87 0 0 0 -4.31,-0.79" />
    <path
       style="stroke-width:0.555261"
       id="path66"
       fill="#231f20"
       d="m 97,104.78 a 0.47,0.47 0 0 1 -0.25,-0.07 6.47,6.47 0 0 0 -4,-0.73 0.51,0.51 0 0 1 -0.59,-0.39 0.49,0.49 0 0 1 0.39,-0.59 7.31,7.31 0 0 1 4.66,0.85 0.5,0.5 0 0 1 -0.25,0.93 z" />
    <path
       style="stroke-width:0.555261"
       id="path68"
       fill="#ffffff"
       d="m 91.11,99.59 a 3.61,3.61 0 0 0 -0.91,-1.75 4.91,4.91 0 0 0 -1.06,-1.12 1.79,1.79 0 0 0 -1.47,-0.32 1.66,1.66 0 0 0 -1,0.92 3.08,3.08 0 0 0 -0.22,1.34 5.74,5.74 0 0 0 3.07,4.83 l -0.16,-0.15" />
    <path
       style="stroke-width:0.555261"
       id="path70"
       fill="#231f20"
       d="m 89.55,104 a 0.49,0.49 0 0 1 -0.23,-0.06 6.17,6.17 0 0 1 -3.32,-5.26 3.52,3.52 0 0 1 0.26,-1.56 2.1,2.1 0 0 1 1.29,-1.19 2.19,2.19 0 0 1 1.89,0.38 5.42,5.42 0 0 1 1.18,1.22 4,4 0 0 1 1,2 0.5,0.5 0 0 1 -0.44,0.55 0.5,0.5 0 0 1 -0.55,-0.45 3.21,3.21 0 0 0 -0.8,-1.5 4.63,4.63 0 0 0 -1,-1 1.24,1.24 0 0 0 -1,-0.25 1.1,1.1 0 0 0 -0.65,0.64 2.53,2.53 0 0 0 -0.18,1.13 5.25,5.25 0 0 0 2.44,4.19 0.48,0.48 0 0 1 0.3,0.13 l 0.17,0.15 a 0.5,0.5 0 0 1 0.07,0.65 0.49,0.49 0 0 1 -0.43,0.23 z" />
    <path
       style="stroke-width:0.555261"
       id="path72"
       fill="#231f20"
       d="m 92.08,107.92 a 7.09,7.09 0 0 1 -3.51,-2 c 0,0 0.51,4 4.07,4.9 z" />
    <path
       style="stroke-width:0.555261"
       id="path74"
       fill="#231f20"
       d="m 92.64,111.36 h -0.12 c -3.85,-0.94 -4.42,-5.15 -4.44,-5.32 a 0.5,0.5 0 0 1 0.88,-0.38 6.67,6.67 0 0 0 3.23,1.79 0.49,0.49 0 0 1 0.38,0.39 l 0.56,2.94 a 0.49,0.49 0 0 1 -0.15,0.45 0.48,0.48 0 0 1 -0.34,0.13 z m -3.15,-4 a 5,5 0 0 0 2.5,2.71 l -0.34,-1.78 a 8.91,8.91 0 0 1 -2.16,-0.89 z" />
    <ellipse
       style="stroke-width:0.555261"
       id="ellipse76"
       fill="#231f20"
       transform="rotate(-85.38,94.36908,95.73902)"
       ry="0.37"
       rx="0.94999999"
       cy="95.739998"
       cx="94.379997" />
    <line
       style="stroke-width:0.555261"
       id="line78"
       fill="#ffffff"
       y2="94.230003"
       x2="93.18"
       y1="94.919998"
       x1="95.110001" />
    <path
       style="stroke-width:0.555261"
       id="path80"
       fill="#231f20"
       d="m 95.11,95.42 a 0.51,0.51 0 0 1 -0.17,0 L 93,94.7 a 0.5,0.5 0 1 1 0.34,-0.94 l 1.93,0.69 a 0.5,0.5 0 0 1 0.3,0.64 0.49,0.49 0 0 1 -0.46,0.33 z" />
    <path
       style="stroke-width:0.555261"
       id="path82"
       fill="#ffffff"
       d="m 87.77,168 a 0.51,0.51 0 0 1 -0.43,-0.23 0.52,0.52 0 0 1 0.13,-0.72 7.63,7.63 0 0 0 3.11,-7.59 0.5,0.5 0 0 1 0.4,-0.6 0.51,0.51 0 0 1 0.61,0.4 8.7,8.7 0 0 1 -3.53,8.65 0.52,0.52 0 0 1 -0.29,0.09 z" />
    <path
       style="stroke-width:0.555261"
       id="path84"
       fill="#231f20"
       d="m 90.81,114.69 -2,3 1.48,0.74 c 0,0 -0.92,9 -10.69,7.61 C 69.48,124.63 63,113.54 63,113.54 l -7.53,-0.76 2.39,9.54 c 0,0 12.79,8.47 22.59,9.08 C 88,131.86 92,122 91.67,118.57 l 1.45,-1.51 z" />
    <path
       style="stroke-width:0.555261"
       id="path86"
       fill="#231f20"
       d="m 73.77,215.26 -7.46,-4.49 -4.68,4.68 4.37,3.47 3.33,2.78 15.1,0.83 c 0,0 -1.86,-3.8 -5.65,-3.89 a 5.5,5.5 0 0 1 -5.01,-3.38 z" />
    <path
       style="stroke-width:0.555261"
       id="path88"
       fill="#231f20"
       d="m 84.42,223 v 0 l -15.1,-0.83 a 0.53,0.53 0 0 1 -0.29,-0.12 l -3.33,-2.78 -4.35,-3.46 a 0.52,0.52 0 0 1 -0.19,-0.37 0.54,0.54 0 0 1 0.15,-0.38 L 66,210.42 a 0.49,0.49 0 0 1 0.61,-0.08 l 7.39,4.49 a 0.45,0.45 0 0 1 0.21,0.26 5,5 0 0 0 4.55,3 c 4,0.1 6,4 6.09,4.17 a 0.52,0.52 0 0 1 0,0.5 0.49,0.49 0 0 1 -0.43,0.24 z m -14.91,-1.82 14,0.77 a 6.21,6.21 0 0 0 -4.74,-2.84 5.93,5.93 0 0 1 -5.38,-3.54 l -7,-4.2 -4,4 3.92,3.13 z" />
    <path
       style="stroke-width:0.555261"
       id="path90"
       fill="#231f20"
       d="m 160.47,217 3.59,5.14 c 0,0 22.78,0.61 22.55,0 -0.23,-0.61 -20.79,-8.61 -20.79,-8.61 z" />
    <path
       style="stroke-width:0.555261"
       id="path92"
       fill="#231f20"
       d="m 180.1,222.89 c -3.38,0 -8.45,-0.08 -16,-0.28 a 0.49,0.49 0 0 1 -0.4,-0.21 l -3.59,-5.14 a 0.56,0.56 0 0 1 -0.08,-0.38 0.54,0.54 0 0 1 0.22,-0.33 l 5.35,-3.47 A 0.52,0.52 0 0 1 166,213 c 20.77,8.1 21,8.64 21.08,8.9 a 0.56,0.56 0 0 1 -0.07,0.5 c -0.12,0.21 -0.32,0.49 -6.91,0.49 z m -15.77,-1.27 c 6.79,0.18 17,0.35 20.69,0.21 -3.38,-1.54 -12.81,-5.3 -19.14,-7.77 l -4.7,3.05 z" />
    <polygon
       style="stroke-width:0.555261"
       id="polygon94"
       fill="#ffffff"
       points="238.67,213.5 245.8,205.37 249.37,212.11 244.02,216.97 " />
    <path
       style="stroke-width:0.555261"
       id="path96"
       fill="#231f20"
       d="m 244,217.47 a 0.48,0.48 0 0 1 -0.28,-0.08 l -5.34,-3.47 a 0.49,0.49 0 0 1 -0.23,-0.35 0.53,0.53 0 0 1 0.12,-0.4 l 7.13,-8.13 a 0.53,0.53 0 0 1 0.44,-0.17 0.49,0.49 0 0 1 0.38,0.27 l 3.57,6.74 a 0.5,0.5 0 0 1 -0.11,0.6 l -5.35,4.86 a 0.46,0.46 0 0 1 -0.33,0.13 z m -4.59,-4.07 4.54,2.94 4.77,-4.34 -3,-5.75 z" />
    <polygon
       style="stroke-width:0.555261"
       id="polygon98"
       fill="#231f20"
       points="319.08,157 309.7,165.56 249.6,214.1 242,208.55 292.05,148.36 " />
    <path
       style="stroke-width:0.555261"
       id="path100"
       fill="#231f20"
       d="m 249.6,214.6 a 0.53,0.53 0 0 1 -0.3,-0.09 L 241.71,209 a 0.49,0.49 0 0 1 -0.2,-0.34 0.47,0.47 0 0 1 0.11,-0.38 L 291.67,148 a 0.49,0.49 0 0 1 0.53,-0.16 l 27,8.64 a 0.51,0.51 0 0 1 0.33,0.37 0.5,0.5 0 0 1 -0.15,0.48 l -9.38,8.6 -60.12,48.56 a 0.45,0.45 0 0 1 -0.28,0.11 z m -6.87,-6.14 6.85,5 59.8,-48.3 8.73,-8 -25.89,-8.27 z" />
    <path
       style="stroke-width:0.555261"
       id="path102"
       fill="#68e1fd"
       d="m 322.39,110.5 c 2.11,0.17 4.39,0.25 6,1.07 4.75,2.38 4,9 3.13,13.21 -2.32,11.16 -6.56,22.11 -10,33 0,0 -24.93,-1.35 -29.55,-9.44 0,0 6.63,-32.89 9.69,-36.41 3.06,-3.52 13.05,-2.7 18.39,-1.71 a 21.61,21.61 0 0 0 2.34,0.28 z" />
    <path
       style="stroke-width:0.555261"
       id="path104"
       fill="#231f20"
       d="m 44.51,215.11 a 1,1 0 0 1 -0.71,-0.29 1,1 0 0 1 0,-1.42 c 8.91,-8.93 12.67,-18.57 16.66,-28.78 a 151.87,151.87 0 0 1 7.16,-16.37 72.3,72.3 0 0 1 11.82,-15.71 c 4.11,-4.11 10.33,-9.2 16.66,-10.09 9.89,-1.4 142.06,-0.07 147.68,0 58.47,-0.23 62.16,-0.12 62.72,0.22 v 0 c 3.22,2.58 11.25,3.21 18.34,3.77 5.56,0.43 10.82,0.85 14.23,2.08 15.93,5.79 23.06,25.39 23.05,42.25 a 78.72,78.72 0 0 1 -3.56,22.09 1.0014115,1.0014115 0 0 1 -1.92,-0.57 76.59,76.59 0 0 0 3.48,-21.52 c 0,-16.16 -6.71,-34.91 -21.73,-40.37 -3.16,-1.14 -8.28,-1.54 -13.71,-2 -7.56,-0.6 -15.38,-1.21 -19.18,-4 -3.72,-0.16 -45.5,0 -61.73,0 -1.39,0 -137.65,-1.39 -147.39,0 -10.21,1.44 -22.14,15.63 -27,24.76 a 149.49,149.49 0 0 0 -7.07,16.15 c -4.06,10.42 -7.9,20.25 -17.1,29.47 a 1,1 0 0 1 -0.7,0.33 z" />
    <path
       style="stroke-width:0.555261"
       id="path106"
       fill="#231f20"
       d="m 292.55,146 c 0.8,-6.28 9.19,-34 9.19,-34" />
    <path
       style="stroke-width:0.555261"
       id="path108"
       fill="#231f20"
       d="m 292.55,146.45 h -0.07 a 0.5,0.5 0 0 1 -0.43,-0.56 c 0.8,-6.26 8.87,-32.95 9.21,-34.08 a 0.5192302,0.5192302 0 1 1 1,0.28 c -0.09,0.28 -8.38,27.75 -9.18,33.93 a 0.5,0.5 0 0 1 -0.53,0.43 z" />
    <path
       style="stroke-width:0.555261"
       id="path110"
       fill="#ffffff"
       d="m 319.74,108.38 c 5.52,2.08 9.26,-7.38 10.26,-11.63 1.39,-6 -5.68,-9.47 -10.39,-11.2 -2.41,-0.89 -5.12,-1.73 -7.48,-0.71 A 4.67,4.67 0 0 0 309.69,87 c -0.35,1 0.25,1.1 0.18,1.74 -0.13,1.15 -1.31,2.25 -1.24,3.79 a 13.07,13.07 0 0 0 1.19,4.47 32.75,32.75 0 0 0 2.5,4.18 c 1.87,2.93 3.76,5.67 7.14,7.1 z" />
    <path
       style="stroke-width:0.555261"
       id="path112"
       fill="#231f20"
       d="m 321.29,109.18 a 4.86,4.86 0 0 1 -1.73,-0.33 v 0 l -0.29,-0.12 c -3.43,-1.45 -5.37,-4.16 -7.38,-7.29 -0.19,-0.31 -0.39,-0.61 -0.58,-0.9 a 23.47,23.47 0 0 1 -1.95,-3.35 14.13,14.13 0 0 1 -1.23,-4.63 5,5 0 0 1 0.74,-2.56 4.26,4.26 0 0 0 0.5,-1.3 0.57,0.57 0 0 0 -0.09,-0.34 1.74,1.74 0 0 1 -0.06,-1.52 5.15,5.15 0 0 1 2.71,-2.46 c 2.54,-1.09 5.38,-0.21 7.85,0.7 8.22,3 11.82,7 10.71,11.78 -0.74,3.17 -3.12,9.69 -6.89,11.71 a 4.93,4.93 0 0 1 -2.31,0.61 z m -6.77,-24.3 a 5.44,5.44 0 0 0 -2.19,0.42 4.23,4.23 0 0 0 -2.17,1.87 0.8,0.8 0 0 0 0,0.77 1.49,1.49 0 0 1 0.17,0.87 4.92,4.92 0 0 1 -0.6,1.64 4.19,4.19 0 0 0 -0.63,2.07 12.6,12.6 0 0 0 1.15,4.26 22.08,22.08 0 0 0 1.86,3.21 l 0.6,0.91 c 2,3.1 3.74,5.57 6.92,6.91 l 0.25,0.1 v 0 a 3.69,3.69 0 0 0 3.22,-0.22 c 3.2,-1.71 5.57,-7.55 6.38,-11 1,-4.23 -2.41,-7.8 -10.07,-10.63 a 15,15 0 0 0 -4.89,-1.18 z" />
    <path
       style="stroke-width:0.555261"
       id="path114"
       fill="#ffffff"
       d="m 308.44,97.45 c 0,0 -3,3.77 -2.51,4.64 0.49,0.87 2.34,0.49 2.34,0.49" />
    <path
       style="stroke-width:0.555261"
       id="path116"
       fill="#231f20"
       d="m 307.38,103.17 a 2,2 0 0 1 -1.89,-0.84 c -0.55,-1 1.37,-3.69 2.56,-5.19 a 0.5021205,0.5021205 0 0 1 0.79,0.62 c -1.4,1.76 -2.55,3.69 -2.46,4.12 0.09,0.43 1.26,0.32 1.78,0.21 a 0.5,0.5 0 0 1 0.6,0.38 0.52,0.52 0 0 1 -0.39,0.6 5.13,5.13 0 0 1 -0.99,0.1 z" />
    <path
       style="stroke-width:0.555261"
       id="path118"
       fill="#ffffff"
       d="m 310,88.72 c -1.8,1.23 -2.13,7.67 -2.28,9.56 q -0.31,4 -0.45,8 c -0.05,1.68 4.3,2.1 5.11,1.66 l -1.26,6.59 c 0,0 2,0.76 5.7,-0.56 3.7,-1.32 3.76,-2.15 3.76,-2.15 l 0.38,-7.7 c 0,0 -2.88,-0.23 -4.28,-3.81 -1.4,-3.58 -0.88,-8.84 -0.88,-8.84 0,0 -4.01,-3.94 -5.8,-2.75 z" />
    <path
       style="stroke-width:0.555261"
       id="path120"
       fill="#231f20"
       d="M 312.83,115.23 A 5.6,5.6 0 0 1 311,115 a 0.5,0.5 0 0 1 -0.32,-0.56 l 1.12,-5.85 a 7.65,7.65 0 0 1 -4,-0.82 1.7,1.7 0 0 1 -0.95,-1.51 c 0.09,-2.65 0.24,-5.34 0.45,-8 v -0.52 c 0.3,-4 0.82,-8.29 2.46,-9.41 v 0 c 2,-1.39 6,2.35 6.43,2.78 a 0.49,0.49 0 0 1 0.15,0.41 c 0,0 -0.5,5.19 0.84,8.61 1.28,3.25 3.83,3.49 3.86,3.49 a 0.5,0.5 0 0 1 0.46,0.52 l -0.38,7.7 c -0.06,0.46 -0.66,1.36 -4.09,2.6 a 12.55,12.55 0 0 1 -4.2,0.79 z m -1.1,-1.09 a 9.88,9.88 0 0 0 4.95,-0.66 c 2.71,-1 3.32,-1.65 3.44,-1.8 l 0.35,-7.17 a 6.18,6.18 0 0 1 -4.23,-4 c -1.27,-3.25 -1,-7.73 -0.93,-8.83 -1.57,-1.48 -4.05,-3.16 -5,-2.51 -1.46,1 -1.88,6.76 -2,8.66 v 0.51 c -0.21,2.65 -0.36,5.33 -0.45,8 0,0.22 0.16,0.43 0.48,0.63 a 6.44,6.44 0 0 0 3.9,0.58 0.5,0.5 0 0 1 0.72,0.54 z" />
    <path
       style="stroke-width:0.555261"
       id="path122"
       fill="#ffffff"
       d="m 307.54,104.28 a 6.9,6.9 0 0 1 4.31,-0.79" />
    <path
       style="stroke-width:0.555261"
       id="path124"
       fill="#231f20"
       d="m 307.54,104.78 a 0.5,0.5 0 0 1 -0.25,-0.93 7.24,7.24 0 0 1 4.71,-0.85 0.49,0.49 0 0 1 0.38,0.59 0.51,0.51 0 0 1 -0.59,0.39 6.39,6.39 0 0 0 -4,0.73 0.47,0.47 0 0 1 -0.25,0.07 z" />
    <path
       style="stroke-width:0.555261"
       id="path126"
       fill="#ffffff"
       d="m 313.39,99.59 a 3.51,3.51 0 0 1 0.9,-1.75 5.14,5.14 0 0 1 1.06,-1.12 1.79,1.79 0 0 1 1.47,-0.32 1.63,1.63 0 0 1 1,0.92 3.08,3.08 0 0 1 0.22,1.34 5.72,5.72 0 0 1 -3.07,4.83 l 0.16,-0.15" />
    <path
       style="stroke-width:0.555261"
       id="path128"
       fill="#231f20"
       d="m 314.94,104 a 0.5,0.5 0 0 1 -0.33,-0.87 l 0.15,-0.15 a 0.53,0.53 0 0 1 0.31,-0.13 5.25,5.25 0 0 0 2.44,-4.19 2.53,2.53 0 0 0 -0.18,-1.13 1.1,1.1 0 0 0 -0.65,-0.64 1.25,1.25 0 0 0 -1,0.25 4.63,4.63 0 0 0 -1,1 3.19,3.19 0 0 0 -0.8,1.51 0.52,0.52 0 0 1 -0.55,0.44 0.5,0.5 0 0 1 -0.44,-0.55 4,4 0 0 1 1,-2 5.65,5.65 0 0 1 1.18,-1.22 2.2,2.2 0 0 1 1.9,-0.38 2.08,2.08 0 0 1 1.28,1.19 3.52,3.52 0 0 1 0.26,1.56 6.26,6.26 0 0 1 -3.34,5.25 0.49,0.49 0 0 1 -0.23,0.06 z" />
    <path
       style="stroke-width:0.555261"
       id="path130"
       fill="#231f20"
       d="m 312.41,107.92 a 7.09,7.09 0 0 0 3.51,-2 c 0,0 -0.5,4 -4.07,4.9 z" />
    <path
       style="stroke-width:0.555261"
       id="path132"
       fill="#231f20"
       d="m 311.85,111.36 a 0.49,0.49 0 0 1 -0.34,-0.14 0.49,0.49 0 0 1 -0.15,-0.45 l 0.56,-2.94 a 0.49,0.49 0 0 1 0.39,-0.39 6.7,6.7 0 0 0 3.22,-1.79 0.51,0.51 0 0 1 0.59,-0.15 0.52,0.52 0 0 1 0.3,0.53 c 0,0.17 -0.59,4.38 -4.45,5.32 z m 1,-3 -0.34,1.78 a 5,5 0 0 0 2.49,-2.74 8.88,8.88 0 0 1 -2.16,0.93 z" />
    <ellipse
       style="stroke-width:0.555261"
       id="ellipse134"
       fill="#231f20"
       transform="rotate(-4.62,310.36153,95.825206)"
       ry="0.94999999"
       rx="0.37"
       cy="95.739998"
       cx="310.12" />
    <line
       style="stroke-width:0.555261"
       id="line136"
       fill="#ffffff"
       y2="94.230003"
       x2="311.31"
       y1="94.919998"
       x1="309.38" />
    <path
       style="stroke-width:0.555261"
       id="path138"
       fill="#231f20"
       d="m 309.38,95.42 a 0.50717354,0.50717354 0 0 1 -0.17,-1 l 1.93,-0.69 a 0.5,0.5 0 0 1 0.34,0.94 l -1.93,0.69 a 0.47,0.47 0 0 1 -0.17,0.06 z" />
    <path
       style="stroke-width:0.555261"
       id="path140"
       fill="#ffffff"
       d="m 323.15,138.9 -18.73,3.33 c 0,0 -3.36,-2.36 -5,-2.5 -1.64,-0.14 -8.33,2.09 -7.36,4.17 0.97,2.08 5.69,3.33 7.36,2.64 a 6,6 0 0 1 2.8,-0.56 c 0,0 8.48,1.81 23.12,-0.83" />
    <path
       style="stroke-width:0.555261"
       id="path142"
       fill="#231f20"
       d="m 298.2,147.22 c -2.28,0 -5.74,-1.22 -6.62,-3.11 a 1.55,1.55 0 0 1 0.21,-1.65 c 1.33,-1.92 6.22,-3.35 7.64,-3.23 1.59,0.14 4.33,2 5.1,2.47 l 18.53,-3.29 a 0.49,0.49 0 0 1 0.58,0.4 0.5,0.5 0 0 1 -0.4,0.58 l -18.74,3.33 a 0.45,0.45 0 0 1 -0.37,-0.08 c -0.91,-0.63 -3.52,-2.31 -4.78,-2.41 -1.26,-0.1 -5.74,1.35 -6.74,2.8 -0.23,0.33 -0.19,0.52 -0.13,0.66 0.85,1.82 5.29,3 6.72,2.39 a 6.43,6.43 0 0 1 3.05,-0.59 c 0.13,0 8.62,1.76 23,-0.83 a 0.50803543,0.50803543 0 1 1 0.18,1 c -14.56,2.63 -22.95,0.91 -23.31,0.83 H 302 a 6.36,6.36 0 0 0 -2.37,0.53 3.63,3.63 0 0 1 -1.43,0.2 z" />
    <path
       style="stroke-width:0.555261"
       id="path144"
       fill="#231f20"
       d="m 244,217 v 4.9 c 0,0 -24.9,1.26 -24.67,0.66 0.23,-0.6 19.32,-9 19.32,-9 z" />
    <path
       style="stroke-width:0.555261"
       id="path146"
       fill="#231f20"
       d="m 222.38,223.18 c -3.19,0 -3.33,-0.19 -3.43,-0.33 a 0.56,0.56 0 0 1 -0.07,-0.5 c 0.09,-0.24 0.31,-0.8 19.59,-9.31 a 0.52,0.52 0 0 1 0.47,0 l 5.35,3.47 a 0.52,0.52 0 0 1 0.23,0.42 v 4.9 a 0.5,0.5 0 0 1 -0.48,0.5 c -12.25,0.67 -18.47,0.85 -21.66,0.85 z m -1.49,-1 c 3.88,0.06 15.08,-0.42 22.63,-0.8 v -4.14 l -4.9,-3.18 c -5.85,2.59 -14.56,6.52 -17.73,8.13 z" />
    <path
       style="stroke-width:0.555261"
       id="path148"
       fill="#231f20"
       d="m 312.25,114.94 -3.23,1 0.87,1.74 c 0,0 -16.11,6.28 -27.09,0 l -7.36,1.25 c 0,0 6.22,6.11 6.36,6.53 0.14,0.42 18.92,1.11 29.24,-7.26 l 2.35,-0.83 z" />
    <path
       style="stroke-width:0.555261"
       id="path150"
       fill="#ffffff"
       d="m 243.86,140.73 c -1.09,1.83 -2.21,3.9 -1.75,6 a 0.88,0.88 0 0 0 0.36,0.61 c 0.38,0.21 0.81,-0.14 1.09,-0.46 a 24,24 0 0 0 3.43,-5.19" />
    <path
       style="stroke-width:0.555261"
       id="path152"
       fill="#231f20"
       d="m 242.71,147.88 a 1,1 0 0 1 -0.48,-0.12 1.4,1.4 0 0 1 -0.61,-0.95 c -0.49,-2.2 0.62,-4.34 1.81,-6.34 a 0.5,0.5 0 0 1 0.86,0.51 c -1.13,1.9 -2.11,3.76 -1.69,5.62 0.1,0.45 0.11,0.28 0.12,0.28 0.01,0 0.21,-0.06 0.46,-0.35 a 23.2,23.2 0 0 0 3.36,-5.08 0.51,0.51 0 0 1 0.67,-0.23 0.5,0.5 0 0 1 0.23,0.67 24.59,24.59 0 0 1 -3.5,5.3 1.71,1.71 0 0 1 -1.23,0.69 z" />
    <path
       style="stroke-width:0.555261"
       id="path154"
       fill="#68e1fd"
       d="m 331.48,114.94 c 0,0 12,26.77 11.2,29.28 -0.8,2.51 -34.24,4.14 -34.24,4.14 l 0.94,-8.15 17.3,-2.76 -3.31,-16.89 z" />
    <path
       style="stroke-width:0.555261"
       id="path156"
       fill="#231f20"
       d="m 309.7,139.4 a 0.5,0.5 0 0 1 -0.5,-0.46 0.49,0.49 0 0 1 0.45,-0.54 L 326,137 320.4,117.68 a 0.5192302,0.5192302 0 1 1 1,-0.28 l 5.77,19.91 a 0.48,0.48 0 0 1 -0.06,0.42 0.49,0.49 0 0 1 -0.37,0.22 l -17,1.45 z" />
    <path
       style="stroke-width:0.555261"
       id="path158"
       fill="#231f20"
       d="m 308.48,148.86 v 0 a 0.51,0.51 0 0 1 -0.5,-0.5 0.5,0.5 0 0 1 0.5,-0.5 v 0 c 0.39,0 24.73,0 32.06,-3.14 a 0.5,0.5 0 0 1 0.39,0.92 c -7.5,3.17 -31.04,3.22 -32.45,3.22 z" />
    <path
       style="stroke-width:0.555261"
       id="path160"
       fill="#ffffff"
       d="M 73.24,139.52 92,142.86 c 0,0 3.36,-2.37 5,-2.5 1.64,-0.13 8.33,2.08 7.36,4.16 -0.97,2.08 -5.7,3.34 -7.36,2.64 a 6.09,6.09 0 0 0 -2.8,-0.55 c 0,0 -8.48,1.8 -23.13,-0.84" />
    <path
       style="stroke-width:0.555261"
       id="path162"
       fill="#231f20"
       d="m 98.19,147.84 a 3.72,3.72 0 0 1 -1.39,-0.22 5.86,5.86 0 0 0 -2.55,-0.52 c -0.3,0.07 -8.69,1.79 -23.26,-0.83 a 0.5,0.5 0 0 1 -0.41,-0.58 0.5,0.5 0 0 1 0.58,-0.41 c 14.36,2.59 22.85,0.86 22.93,0.84 a 6.31,6.31 0 0 1 3.1,0.58 c 1.43,0.6 5.87,-0.57 6.72,-2.39 0.06,-0.13 0.1,-0.33 -0.13,-0.66 -1,-1.44 -5.47,-2.9 -6.74,-2.8 -1.27,0.1 -3.88,1.78 -4.78,2.42 a 0.54,0.54 0 0 1 -0.37,0.08 L 73.15,140 a 0.48,0.48 0 0 1 -0.4,-0.57 0.49,0.49 0 0 1 0.58,-0.41 l 18.53,3.3 c 0.77,-0.53 3.51,-2.34 5.1,-2.47 1.43,-0.13 6.31,1.31 7.64,3.22 a 1.55,1.55 0 0 1 0.21,1.65 c -0.88,1.9 -4.35,3.12 -6.62,3.12 z" />
    <path
       style="stroke-width:0.555261"
       id="path164"
       fill="#ffffff"
       d="m 140.6,139.54 c 1.47,1.55 3,3.32 3,5.45 a 0.92,0.92 0 0 1 -0.22,0.68 c -0.32,0.28 -0.82,0 -1.17,-0.21 a 24.07,24.07 0 0 1 -4.49,-4.3" />
    <path
       style="stroke-width:0.555261"
       id="path166"
       fill="#231f20"
       d="m 143.07,146.29 a 1.9,1.9 0 0 1 -1.11,-0.43 24.42,24.42 0 0 1 -4.59,-4.38 0.50132325,0.50132325 0 0 1 0.78,-0.63 23.34,23.34 0 0 0 4.4,4.2 c 0.32,0.24 0.51,0.25 0.54,0.24 0.03,-0.01 0,0 0,-0.3 0,-1.9 -1.38,-3.5 -2.9,-5.1 a 0.50224496,0.50224496 0 1 1 0.73,-0.69 c 1.59,1.69 3.16,3.52 3.17,5.78 a 1.38,1.38 0 0 1 -0.39,1.06 1,1 0 0 1 -0.63,0.25 z" />
    <path
       style="stroke-width:0.555261"
       id="path168"
       fill="#ffffff"
       d="m 289.11,157.68 a 7.84,7.84 0 0 1 -1.64,-0.18 0.51,0.51 0 0 1 -0.4,-0.61 0.52,0.52 0 0 1 0.61,-0.4 c 4,0.85 7.2,-2.25 7.23,-2.28 a 0.51266461,0.51266461 0 1 1 0.72,0.73 10.11,10.11 0 0 1 -6.52,2.74 z" />
    <path
       style="stroke-width:0.555261"
       id="path170"
       fill="#ffffff"
       d="m 322.88,162.83 a 6.32,6.32 0 0 1 -5.13,-2.73 0.52,0.52 0 0 1 0.88,-0.54 5.2,5.2 0 0 0 5.81,2 0.51,0.51 0 0 1 0.63,0.36 0.51,0.51 0 0 1 -0.37,0.63 6.79,6.79 0 0 1 -1.82,0.28 z" />
  </g>
</svg>
