<?xml version="1.0" encoding="UTF-8" standalone="no"?>
<svg
   xmlns:dc="http://purl.org/dc/elements/1.1/"
   xmlns:cc="http://creativecommons.org/ns#"
   xmlns:rdf="http://www.w3.org/1999/02/22-rdf-syntax-ns#"
   xmlns:svg="http://www.w3.org/2000/svg"
   xmlns="http://www.w3.org/2000/svg"
   xmlns:sodipodi="http://sodipodi.sourceforge.net/DTD/sodipodi-0.dtd"
   xmlns:inkscape="http://www.inkscape.org/namespaces/inkscape"
   inkscape:version="1.0 (4035a4fb49, 2020-05-01)"
   sodipodi:docname="fitness.svg"
   id="svg79"
   version="1.1"
   viewBox="0 0 400 300">
  <metadata
     id="metadata85">
    <rdf:RDF>
      <cc:Work
         rdf:about="">
        <dc:format>image/svg+xml</dc:format>
        <dc:type
           rdf:resource="http://purl.org/dc/dcmitype/StillImage" />
      </cc:Work>
    </rdf:RDF>
  </metadata>
  <defs
     id="defs83" />
  <sodipodi:namedview
     inkscape:current-layer="svg79"
     inkscape:window-maximized="1"
     inkscape:window-y="-8"
     inkscape:window-x="-8"
     inkscape:cy="150"
     inkscape:cx="200"
     inkscape:zoom="2.5475"
     showgrid="false"
     id="namedview81"
     inkscape:window-height="1017"
     inkscape:window-width="1920"
     inkscape:pageshadow="2"
     inkscape:pageopacity="0"
     guidetolerance="10"
     gridtolerance="10"
     objecttolerance="10"
     borderopacity="1"
     bordercolor="#666666"
     pagecolor="#ffffff" />
  <g
     style="stroke-width:0.641947"
     transform="matrix(1.5734136,0,0,1.5422601,-152.56293,-73.133491)"
     data-name="#379_fitness_outline"
     id="_379_fitness_outline">
    <path
       style="stroke-width:0.47468"
       id="path2"
       fill="#ffc9b0"
       d="m 251,161.06 c 0,0 28.59,2.73 32.28,5.11 10.14,6.53 2.73,62.37 2.73,62.37 H 269.09 L 268.22,186 h -21.4 z" />
    <path
       style="stroke-width:0.47468"
       id="path4"
       fill="#093f68"
       d="m 286,229.54 h -16.91 a 1,1 0 0 1 -1,-1 l -0.85,-41.6 h -20.42 a 1,1 0 0 1 -0.76,-0.35 1,1 0 0 1 -0.23,-0.81 L 250,160.9 a 1,1 0 0 1 1.08,-0.84 c 3,0.29 28.94,2.83 32.73,5.27 4.59,2.95 6.43,14.24 5.62,34.51 -0.58,14.66 -2.42,28.69 -2.44,28.83 a 1,1 0 0 1 -0.99,0.87 z m -15.89,-2 h 15 c 2.05,-16 5.34,-55.55 -2.39,-60.53 -2.49,-1.6 -19.5,-3.75 -30.91,-4.87 L 248,185 h 20.22 a 1,1 0 0 1 1,1 z" />
    <path
       style="stroke-width:0.47468"
       id="path6"
       fill="#725858"
       d="m 118.05,142.41 c 0,0 -5.58,-3.84 -12.64,1.8 -7.06,5.64 -7.52,10.54 -6.2,11.18 1.32,0.64 3.81,-1.77 3.81,-1.77 a 26,26 0 0 0 -0.22,15.94 c 2.78,9.17 7.53,13.58 20.13,14.37 a 33,33 0 0 0 17.64,-4.33 c 0,0 4.06,-11.49 -1.77,-19.31 -5.83,-7.82 -20.75,-17.88 -20.75,-17.88 z" />
    <path
       style="stroke-width:0.47468"
       id="path8"
       fill="#093f68"
       d="m 124.62,185 c -0.58,0 -1.16,0 -1.75,0 -12.23,-0.77 -17.93,-4.86 -21,-15.08 a 27.55,27.55 0 0 1 -0.56,-13.76 2.89,2.89 0 0 1 -2.5,0.2 2.14,2.14 0 0 1 -1.13,-1.84 c -0.25,-2.25 1.47,-6.49 7.13,-11 7.52,-6 13.52,-2.06 13.83,-1.85 0.66,0.44 15.14,10.25 21,18.11 6.08,8.15 2.09,19.75 1.91,20.24 a 1,1 0 0 1 -0.41,0.52 34.12,34.12 0 0 1 -16.52,4.46 z M 103,152.62 a 1,1 0 0 1 0.56,0.17 1,1 0 0 1 0.44,1.21 25.23,25.23 0 0 0 -0.2,15.28 c 2.44,8 6.37,12.85 19.24,13.66 a 32.08,32.08 0 0 0 16.75,-4 c 0.58,-1.91 3.16,-11.48 -1.74,-18.05 -5.66,-7.59 -20.36,-17.54 -20.51,-17.64 v 0 c -0.22,-0.14 -5.11,-3.31 -11.46,1.77 -6.35,5.08 -6.74,9 -6.31,9.54 a 5.79,5.79 0 0 0 2.61,-1.64 1,1 0 0 1 0.62,-0.3 z m 37.55,27 z" />
    <path
       style="stroke-width:0.47468"
       id="path10"
       fill="#ffc9b0"
       d="m 152.27,166 c -0.77,4.63 -4,8.43 -7.75,11.06 -1.94,1.38 -4.42,3.75 -6.91,2.42 a 7.44,7.44 0 0 1 -2.52,-2.56 26.22,26.22 0 0 0 -5.48,-6.52 c -2.78,-2.07 -6.53,-2.12 -9.13,-4.69 -4.56,-4.49 -1.41,-10.73 -1.42,-16.23 0,-0.61 0,-6.89 -1,-7.08 l 18.55,3.1 c 10.25,1.72 17.39,10.09 15.66,20.5 z" />
    <path
       style="stroke-width:0.47468"
       id="path12"
       fill="#093f68"
       d="m 139.14,180.88 a 4.22,4.22 0 0 1 -2,-0.51 8.35,8.35 0 0 1 -2.88,-2.89 25.35,25.35 0 0 0 -5.25,-6.27 15,15 0 0 0 -3.87,-1.84 13.83,13.83 0 0 1 -5.36,-2.93 c -3.61,-3.55 -2.88,-8.14 -2.23,-12.19 a 31.52,31.52 0 0 0 0.51,-4.76 23.3,23.3 0 0 0 -0.54,-6.23 1,1 0 0 1 0.7,-1.84 l 18.55,3.1 a 20.68,20.68 0 0 1 12.95,7.35 18,18 0 0 1 3.54,14.31 v 0 c -0.73,4.35 -3.63,8.51 -8.16,11.71 l -0.81,0.6 c -1.41,1.05 -3.2,2.39 -5.15,2.39 z M 119.7,143.7 a 33.6,33.6 0 0 1 0.36,5.79 32.33,32.33 0 0 1 -0.54,5.07 c -0.62,3.92 -1.21,7.63 1.66,10.45 a 12,12 0 0 0 4.64,2.48 16.59,16.59 0 0 1 4.39,2.12 26.8,26.8 0 0 1 5.71,6.77 6.53,6.53 0 0 0 2.16,2.22 c 1.48,0.79 3,-0.21 5,-1.71 0.29,-0.22 0.58,-0.44 0.86,-0.63 4.09,-2.89 6.7,-6.59 7.34,-10.41 a 16,16 0 0 0 -3.13,-12.74 18.69,18.69 0 0 0 -11.72,-6.61 z m 32.57,22.3 z" />
    <circle
       style="stroke-width:0.47468"
       id="circle14"
       fill="#093f68"
       r="1.74"
       cy="150.67999"
       cx="130.14999" />
    <path
       style="stroke-width:0.47468"
       id="path16"
       fill="#ffc9b0"
       d="m 131.67,146.27 c 0,0 8.45,-3.11 8.55,-1.88 a 19.5,19.5 0 0 1 -0.62,4.11" />
    <path
       style="stroke-width:0.47468"
       id="path18"
       fill="#093f68"
       d="m 139.6,149.5 a 1,1 0 0 1 -0.24,0 1,1 0 0 1 -0.73,-1.21 23.17,23.17 0 0 0 0.57,-3.15 44.15,44.15 0 0 0 -7.18,2.1 1,1 0 0 1 -1.29,-0.6 1,1 0 0 1 0.6,-1.28 c 7.86,-2.89 8.95,-2.2 9.31,-2 a 1.25,1.25 0 0 1 0.57,0.95 19.34,19.34 0 0 1 -0.64,4.43 1,1 0 0 1 -0.97,0.76 z" />
    <path
       style="stroke-width:0.47468"
       id="path20"
       fill="#ffc9b0"
       d="m 126.35,167.29 c 0,0 -3.9,4 -0.27,7.13 3.63,3.13 10.92,1.92 10.17,-5.92" />
    <path
       style="stroke-width:0.47468"
       id="path22"
       fill="#093f68"
       d="m 130.46,177 a 7.77,7.77 0 0 1 -5,-1.84 5,5 0 0 1 -1.89,-3.63 7.61,7.61 0 0 1 2.09,-5 1.0007122,1.0007122 0 0 1 1.44,1.39 5.59,5.59 0 0 0 -1.53,3.49 3,3 0 0 0 1.19,2.19 5.69,5.69 0 0 0 6.08,0.81 c 1.85,-1 2.72,-3.05 2.45,-5.88 a 1.0045024,1.0045024 0 1 1 2,-0.19 c 0.35,3.64 -0.93,6.5 -3.52,7.84 a 7.1,7.1 0 0 1 -3.31,0.82 z" />
    <path
       style="stroke-width:0.47468"
       id="path24"
       fill="#093f68"
       d="m 124.39,157.6 a 2.08,2.08 0 0 1 -0.68,-0.12 2,2 0 0 1 -1.2,-2.56 l 2.65,-7.32 a 2.0056046,2.0056046 0 0 1 3.77,1.37 l -2.65,7.31 a 2,2 0 0 1 -1.89,1.32 z" />
    <path
       style="stroke-width:0.47468"
       id="path26"
       fill="#093f68"
       d="m 140.35,160 a 1,1 0 0 1 0,-2 4.17,4.17 0 0 0 4.34,-4.42 1,1 0 0 1 1,-1 v 0 a 1,1 0 0 1 1,1 7.3,7.3 0 0 1 -0.67,3.11 6,6 0 0 1 -5.59,3.39 z" />
    <path
       style="stroke-width:0.47468"
       id="path28"
       fill="#68e1fd"
       d="m 162.15,149.56 2.2,-0.85 a 19.43,19.43 0 0 1 11.08,-1.13 c 3.6,0.82 6.71,3 10.27,3.92 3.56,0.92 7.44,0 11.22,0.2 l 16.48,0.73 -1.31,33.57 h -49.7 a 13.56,13.56 0 0 1 -13.56,-13.56 v -8.68 c 0,-8 6.74,-11.58 13.32,-14.2 z" />
    <path
       style="stroke-width:0.47468"
       id="path30"
       fill="#093f68"
       d="m 212.09,187 h -49.7 a 14.57,14.57 0 0 1 -14.56,-14.56 v -8.68 c 0,-8.37 6.71,-12.2 13.95,-15.09 l 2.22,-0.86 a 20.32,20.32 0 0 1 11.65,-1.16 28.22,28.22 0 0 1 5.54,2.07 28.75,28.75 0 0 0 4.75,1.85 21.56,21.56 0 0 0 6.74,0.27 40.64,40.64 0 0 1 4.29,-0.1 l 16.47,0.73 a 1,1 0 0 1 1,1 L 213.09,186 a 1,1 0 0 1 -1,1 z M 172,148.21 a 20.57,20.57 0 0 0 -7.26,1.43 l -2.19,0.85 v 0 c -7.62,3 -12.69,6.45 -12.69,13.23 v 8.68 a 12.57,12.57 0 0 0 12.53,12.6 h 48.73 l 1.24,-31.58 -15.48,-0.69 a 39.63,39.63 0 0 0 -4.08,0.11 23.38,23.38 0 0 1 -7.35,-0.33 31.4,31.4 0 0 1 -5.09,-2 27,27 0 0 0 -5.15,-1.94 14.89,14.89 0 0 0 -3.21,-0.36 z m -9.82,1.35 z" />
    <polygon
       style="stroke-width:0.47468"
       id="polygon32"
       fill="#f56132"
       points="212.09,185.96 213.4,152.43 262.02,155.8 262.02,185.96 " />
    <path
       style="stroke-width:0.47468"
       id="path34"
       fill="#093f68"
       d="m 262,187 h -49.91 a 1,1 0 0 1 -0.72,-0.31 1,1 0 0 1 -0.28,-0.73 l 1.31,-33.53 a 1,1 0 0 1 0.33,-0.71 1,1 0 0 1 0.74,-0.25 l 48.62,3.38 a 1,1 0 0 1 0.93,1 V 186 a 1,1 0 0 1 -1.02,1 z m -48.89,-2 H 261 v -28.26 l -46.66,-3.24 z" />
    <path
       style="stroke-width:0.47468"
       id="path36"
       fill="#ffc9b0"
       transform="rotate(8.18,158.8711,146.91548)"
       d="m 150.25,115.08 h 17.08 v 55 a 8.54,8.54 0 0 1 -8.54,8.54 v 0 a 8.54,8.54 0 0 1 -8.54,-8.54 z" />
    <path
       style="stroke-width:0.47468"
       id="path38"
       fill="#093f68"
       d="m 155.49,179.42 a 9.12,9.12 0 0 1 -1.37,-0.1 9.55,9.55 0 0 1 -8.08,-10.8 L 153.87,114 a 1,1 0 0 1 1.13,-0.85 l 16.91,2.43 a 1,1 0 0 1 0.66,0.39 1,1 0 0 1 0.19,0.75 l -7.84,54.48 a 9.55,9.55 0 0 1 -9.43,8.22 z m 0.22,-64.1 -7.71,53.48 a 7.5505563,7.5505563 0 1 0 14.94,2.2 l 7.7,-53.49 z" />
    <circle
       style="stroke-width:0.47468"
       id="circle40"
       fill="#68e1fd"
       r="38.009998"
       cy="87"
       cx="167.39999" />
    <path
       style="stroke-width:0.47468"
       id="path42"
       fill="#093f68"
       d="m 167.4,126 a 39,39 0 1 1 39,-39 39.06,39.06 0 0 1 -39,39 z m 0,-76 a 37,37 0 1 0 37,37 37.05,37.05 0 0 0 -37,-37 z" />
    <circle
       style="stroke-width:0.47468"
       id="circle44"
       fill="#68e1fd"
       r="29.32"
       cy="87"
       cx="167.39999" />
    <path
       style="stroke-width:0.47468"
       id="path46"
       fill="#093f68"
       d="M 167.4,117.33 A 30.33,30.33 0 1 1 197.72,87 30.36,30.36 0 0 1 167.4,117.33 Z m 0,-58.65 A 28.33,28.33 0 1 0 195.72,87 28.35,28.35 0 0 0 167.4,58.68 Z" />
    <circle
       style="stroke-width:0.47468"
       id="circle48"
       fill="#093f68"
       r="5.5"
       cy="87"
       cx="167.39999" />
    <path
       style="stroke-width:0.47468"
       id="path50"
       fill="#093f68"
       d="m 167.4,93.51 a 6.51,6.51 0 1 1 6.5,-6.51 6.52,6.52 0 0 1 -6.5,6.51 z m 0,-11 a 4.51,4.51 0 1 0 4.5,4.5 4.51,4.51 0 0 0 -4.5,-4.51 z" />
    <path
       style="stroke-width:0.47468"
       id="path52"
       fill="#68e1fd"
       d="m 269.09,228.54 v 12.22 h 30.85 a 1.43,1.43 0 0 0 0.78,-2.63 L 286,228.54 Z" />
    <path
       style="stroke-width:0.47468"
       id="path54"
       fill="#093f68"
       d="m 299.94,241.76 h -30.85 a 1,1 0 0 1 -1,-1 v -12.22 a 1,1 0 0 1 1,-1 H 286 a 1,1 0 0 1 0.54,0.16 l 14.76,9.59 a 2.43,2.43 0 0 1 -1.32,4.47 z m -29.85,-2 h 29.85 a 0.39,0.39 0 0 0 0.41,-0.31 0.39,0.39 0 0 0 -0.18,-0.48 l -14.51,-9.43 h -15.57 z" />
    <path
       style="stroke-width:0.47468"
       id="path56"
       fill="#093f68"
       d="m 112.85,186 h 142.33 a 11.32,11.32 0 0 1 11.32,11.32 v 1.54 a 5.22,5.22 0 0 1 -5.22,5.22 H 106.75 a 5.22,5.22 0 0 1 -5.22,-5.22 v -1.54 A 11.32,11.32 0 0 1 112.85,186 Z" />
    <path
       style="stroke-width:0.47468"
       id="path58"
       fill="#093f68"
       d="M 261.28,205 H 106.75 a 6.23,6.23 0 0 1 -6.22,-6.22 v -1.54 A 12.33,12.33 0 0 1 112.85,185 h 142.33 a 12.34,12.34 0 0 1 12.32,12.32 v 1.54 A 6.23,6.23 0 0 1 261.28,205 Z M 112.85,187 a 10.33,10.33 0 0 0 -10.32,10.32 v 1.54 a 4.22,4.22 0 0 0 4.22,4.22 h 154.53 a 4.22,4.22 0 0 0 4.22,-4.22 v -1.54 A 10.33,10.33 0 0 0 255.18,187 Z" />
    <rect
       style="stroke-width:0.47468"
       id="rect60"
       fill="#093f68"
       height="31.530001"
       width="9.8599997"
       y="204.03999"
       x="120.29" />
    <path
       style="stroke-width:0.47468"
       id="path62"
       fill="#093f68"
       d="m 130.15,236.58 h -9.86 a 1,1 0 0 1 -1,-1 V 204 a 1,1 0 0 1 1,-1 h 9.86 a 1,1 0 0 1 1,1 v 31.54 a 1,1 0 0 1 -1,1.04 z m -8.86,-2 h 7.86 V 205 h -7.86 z" />
    <rect
       ry="1.7571614"
       style="stroke-width:0.47468"
       id="rect64"
       fill="#093f68"
       rx="1.7223698"
       height="5.4299998"
       width="21.41"
       y="235.58"
       x="113.86" />
    <path
       style="stroke-width:0.47468"
       id="path66"
       fill="#093f68"
       d="m 132.56,242 h -16 a 3.72,3.72 0 1 1 0,-7.43 h 16 a 3.72,3.72 0 0 1 0,7.43 z m -16,-5.43 a 1.72,1.72 0 1 0 0,3.43 h 16 a 1.72,1.72 0 0 0 0,-3.43 z" />
    <rect
       style="stroke-width:0.47468"
       id="rect68"
       fill="#093f68"
       height="31.530001"
       width="9.8599997"
       y="204.03999"
       x="235.12" />
    <path
       style="stroke-width:0.47468"
       id="path70"
       fill="#093f68"
       d="m 245,236.58 h -9.87 a 1,1 0 0 1 -1,-1 V 204 a 1,1 0 0 1 1,-1 H 245 a 1,1 0 0 1 1,1 v 31.54 a 1,1 0 0 1 -1,1.04 z m -8.87,-2 H 244 V 205 h -7.87 z" />
    <rect
       ry="1.7571614"
       style="stroke-width:0.47468"
       id="rect72"
       fill="#093f68"
       rx="1.7223698"
       height="5.4299998"
       width="21.41"
       y="235.58"
       x="228.7" />
    <path
       style="stroke-width:0.47468"
       id="path74"
       fill="#093f68"
       d="m 247.39,242 h -16 a 3.72,3.72 0 0 1 0,-7.43 h 16 a 3.72,3.72 0 1 1 0,7.43 z m -16,-5.43 a 1.72,1.72 0 0 0 0,3.43 h 16 a 1.72,1.72 0 1 0 0,-3.43 z" />
    <path
       style="stroke-width:0.47468"
       id="path76"
       fill="#093f68"
       d="m 285.23,236.58 a 1,1 0 0 1 -0.67,-0.25 1,1 0 0 1 -0.08,-1.42 l 4.24,-4.75 a 1.0023597,1.0023597 0 0 1 1.5,1.33 l -4.22,4.75 a 1,1 0 0 1 -0.77,0.34 z" />
  </g>
</svg>
