<?xml version="1.0" encoding="UTF-8" standalone="no"?>
<svg
   xmlns:dc="http://purl.org/dc/elements/1.1/"
   xmlns:cc="http://creativecommons.org/ns#"
   xmlns:rdf="http://www.w3.org/1999/02/22-rdf-syntax-ns#"
   xmlns:svg="http://www.w3.org/2000/svg"
   xmlns="http://www.w3.org/2000/svg"
   xmlns:sodipodi="http://sodipodi.sourceforge.net/DTD/sodipodi-0.dtd"
   xmlns:inkscape="http://www.inkscape.org/namespaces/inkscape"
   inkscape:version="1.0 (4035a4fb49, 2020-05-01)"
   sodipodi:docname="relaxing.svg"
   id="svg71"
   version="1.1"
   viewBox="0 0 400 300">
  <metadata
     id="metadata77">
    <rdf:RDF>
      <cc:Work
         rdf:about="">
        <dc:format>image/svg+xml</dc:format>
        <dc:type
           rdf:resource="http://purl.org/dc/dcmitype/StillImage" />
      </cc:Work>
    </rdf:RDF>
  </metadata>
  <defs
     id="defs75" />
  <sodipodi:namedview
     inkscape:current-layer="svg71"
     inkscape:window-maximized="1"
     inkscape:window-y="-8"
     inkscape:window-x="-8"
     inkscape:cy="150"
     inkscape:cx="200"
     inkscape:zoom="2.5475"
     showgrid="false"
     id="namedview73"
     inkscape:window-height="1017"
     inkscape:window-width="1920"
     inkscape:pageshadow="2"
     inkscape:pageopacity="0"
     guidetolerance="10"
     gridtolerance="10"
     objecttolerance="10"
     borderopacity="1"
     bordercolor="#666666"
     pagecolor="#ffffff" />
  <g
     style="stroke-width:0.570095"
     transform="matrix(1.6551746,0,0,1.8589259,-130.58017,-129.1612)"
     data-name="#544_relaxing_outline"
     id="_544_relaxing_outline">
    <path
       style="stroke-width:0.413844"
       id="path2"
       fill="#ffffff"
       d="m 180,108.79 -70.67,17.47 c 0,0 9.57,26.89 17.17,39.35 7.6,12.46 74.91,-9.32 74.91,-9.32 z" />
    <path
       style="stroke-width:0.413844"
       id="path4"
       fill="#093f68"
       d="m 139.09,170.49 c -7.22,0 -11.66,-1.46 -13.43,-4.36 -7.57,-12.41 -17.17,-39.26 -17.26,-39.53 a 1,1 0 0 1 0.06,-0.81 1,1 0 0 1 0.64,-0.5 l 70.67,-17.47 a 1,1 0 0 1 1.15,0.56 l 21.41,47.5 a 1,1 0 0 1 0,0.82 1,1 0 0 1 -0.6,0.55 c -0.17,0.05 -17.08,5.5 -34.7,9.35 -11.85,2.59 -21.13,3.89 -27.94,3.89 z M 110.66,127 c 1.84,5.06 10.09,27.28 16.71,38.13 5.79,9.49 53.41,-3.27 72.68,-9.41 L 179.44,110 Z" />
    <path
       style="stroke-width:0.413844"
       id="path6"
       fill="#ffc9b0"
       d="m 185.83,137.9 c 1.56,-0.65 13.33,-11.64 13.33,-11.64 l -18,-3.77 2,-9.77 c 0,0 19.49,-0.51 27.5,7 4.29,4 6.73,8.78 1.56,15.15 -3.49,4.31 -21.61,21.75 -21.61,21.75 z" />
    <path
       style="stroke-width:0.413844"
       id="path8"
       fill="#093f68"
       d="m 190.56,157.67 a 0.84,0.84 0 0 1 -0.27,0 1,1 0 0 1 -0.7,-0.72 l -4.73,-18.77 a 1,1 0 0 1 0.58,-1.16 c 0.88,-0.41 6.35,-5.26 11.62,-10.14 l -16.13,-3.37 a 1,1 0 0 1 -0.77,-1.18 l 2,-9.77 a 1,1 0 0 1 1,-0.8 c 0.81,0 20,-0.43 28.21,7.32 3.66,3.45 7.81,8.92 1.66,16.51 -3.49,4.31 -20.95,21.13 -21.69,21.84 a 1,1 0 0 1 -0.78,0.24 z m -3.56,-19.32 4.14,16.4 c 4.14,-4 17.4,-16.9 20.29,-20.46 4,-4.93 3.55,-9 -1.48,-13.79 -6.73,-6.35 -22.3,-6.77 -26,-6.78 l -1.62,8 17.05,3.57 a 1,1 0 0 1 0.48,1.71 c -2.51,2.32 -10.14,9.39 -12.86,11.35 z" />
    <path
       style="stroke-width:0.413844"
       id="path10"
       fill="#ffc9b0"
       d="m 259.41,151.88 c 0.56,-0.28 8.73,-4.92 8.73,-4.92 0,0 -2,-11.83 -0.85,-12.39 1.15,-0.56 11.83,21.68 11.83,21.68 l -17.18,7.6 z" />
    <path
       style="stroke-width:0.413844"
       id="path12"
       fill="#093f68"
       d="m 261.94,164.85 a 1,1 0 0 1 -0.45,-0.11 1,1 0 0 1 -0.52,-0.68 l -2.54,-12 A 1,1 0 0 1 259,151 c 0.37,-0.19 4.83,-2.71 8.08,-4.56 -1.94,-11.89 -0.81,-12.45 -0.19,-12.76 a 1.14,1.14 0 0 1 0.87,0 c 1.29,0.44 5.43,7.91 12.3,22.19 a 1,1 0 0 1 -0.5,1.35 l -17.17,7.6 a 1,1 0 0 1 -0.45,0.03 z m -1.4,-12.45 2.13,10 15.1,-6.69 c -3.71,-7.66 -7.82,-15.65 -9.82,-18.89 a 92,92 0 0 0 1.17,9.93 1,1 0 0 1 -0.49,1 c -0.71,0.48 -6.11,3.55 -8.09,4.65 z" />
    <path
       style="stroke-width:0.413844"
       id="path14"
       fill="#093f68"
       d="m 216.33,174.69 c 1.41,-0.28 44.21,-24.78 44.21,-24.78 l 11.54,15.7 c 0,0 -41.39,29.63 -49.84,23.44 -8.45,-6.19 -4.78,-17.18 -4.78,-17.18" />
    <path
       style="stroke-width:0.413844"
       id="path16"
       fill="#093f68"
       d="m 225.38,190.85 a 6.26,6.26 0 0 1 -3.73,-1 c -5.65,-4.15 -6.22,-10.33 -5.87,-14.34 a 1,1 0 0 1 -0.43,-0.64 1,1 0 0 1 0.66,-1.14 16.13,16.13 0 0 1 0.5,-2.18 1.0008621,1.0008621 0 0 1 1.9,0.63 c 0,0 -0.06,0.18 -0.13,0.41 6.85,-3.67 27.48,-15.38 41.76,-23.56 a 1,1 0 0 1 1.3,0.28 L 272.89,165 a 1.06,1.06 0 0 1 0.18,0.75 1,1 0 0 1 -0.41,0.66 c -3.84,2.76 -34.52,24.44 -47.28,24.44 z m -7.59,-15.76 c -0.44,3.48 -0.21,9.3 5.05,13.15 1.77,1.3 7.63,1.8 27,-9.45 9.4,-5.47 18.18,-11.53 20.85,-13.41 l -10.41,-14.16 c -11.95,6.83 -36.53,20.85 -42.49,23.87 z" />
    <path
       style="stroke-width:0.413844"
       id="path18"
       fill="#093f68"
       d="m 129,166.58 v 0 a 1,1 0 0 1 -1,-1 c 0.75,-19.73 -11.4,-34.85 -11.52,-35 a 1.0019232,1.0019232 0 1 1 1.55,-1.27 c 0.52,0.64 12.75,15.83 12,36.35 a 1,1 0 0 1 -1.03,0.92 z" />
    <path
       style="stroke-width:0.413844"
       id="path20"
       fill="#ffc9b0"
       d="m 161.14,146.11 24.69,-8.21 c 3,0.48 -1.09,12.39 4.73,18.77 5.82,6.38 -5.64,15.58 -5.64,15.58 l -11.67,2.44 c 0,0 -2.47,-9 -6.4,-14.64" />
    <path
       style="stroke-width:0.413844"
       id="path22"
       fill="#093f68"
       d="m 173.25,175.69 a 1,1 0 0 1 -1,-0.74 c 0,-0.08 -2.48,-8.91 -6.26,-14.33 a 1,1 0 0 1 0.25,-1.39 1,1 0 0 1 1.39,0.25 c 3.29,4.71 5.54,11.58 6.28,14 l 10.53,-2.2 c 1,-0.89 6.37,-5.61 6.71,-10.09 a 4.92,4.92 0 0 0 -1.37,-3.89 c -3.64,-4 -3.68,-9.82 -3.71,-14.08 0,-1.5 0,-3.71 -0.36,-4.28 l -24.29,8.08 a 1.0008621,1.0008621 0 1 1 -0.63,-1.9 L 185.51,137 a 1.12,1.12 0 0 1 0.48,0 c 2.08,0.34 2.1,3 2.12,6.34 0,3.93 0.06,9.32 3.19,12.75 a 6.92,6.92 0 0 1 1.89,5.39 c -0.45,5.81 -7.35,11.4 -7.64,11.64 a 1,1 0 0 1 -0.42,0.2 l -11.67,2.44 z" />
    <path
       style="stroke-width:0.413844"
       id="path24"
       fill="#725858"
       d="m 139,129.89 a 13.41,13.41 0 0 1 -5.46,-1.26 c -3.15,-1.54 -5.59,-4.2 -8,-6.79 a 8.27,8.27 0 0 0 6.3,-4.16 18.13,18.13 0 0 1 -12.83,1.13 c 3.34,-1.49 4.63,-5.58 4.81,-9.23 0.18,-3.65 -0.33,-7.45 1,-10.87 1.7,-4.46 5.12,-5.68 9.29,-6.72 -2.42,-6.62 -0.54,-14.24 6.42,-17 11.16,-4.47 21.83,5.51 27.89,2.44 6.06,-3.07 6.78,-6.47 6.78,-6.47 a 12.3,12.3 0 0 1 3,13.32 c 0,0 4.51,-3.16 7.38,3.3 2.87,6.46 4.9,25.52 4.9,25.52 l -4.81,0.75 c -2,0.31 -4.25,1.59 -6.15,2.3 l -14,5.27 c -7,2.58 -17.76,8.77 -26.52,8.47 z" />
    <path
       style="stroke-width:0.413844"
       id="path26"
       fill="#093f68"
       d="M 139.65,130.9 H 139 a 14.31,14.31 0 0 1 -5.86,-1.37 c -3.37,-1.64 -6,-4.49 -8.25,-7 a 1,1 0 0 1 0.64,-1.67 7,7 0 0 0 2.58,-0.79 19.17,19.17 0 0 1 -9.28,-0.28 1,1 0 0 1 -0.73,-0.89 1,1 0 0 1 0.6,-1 c 3.5,-1.56 4.11,-6.37 4.21,-8.37 0,-1 0,-2 0,-3 a 22.28,22.28 0 0 1 1,-8.17 c 1.73,-4.53 5.16,-6 8.94,-7.07 C 131,84.76 132.8,77 140.23,74 c 6.58,-2.63 13,-0.49 18.22,1.23 3.91,1.3 7.29,2.41 9.59,1.25 5.46,-2.77 6.25,-5.77 6.25,-5.8 A 1,1 0 0 1 175,70 a 1,1 0 0 1 1,0.19 13.47,13.47 0 0 1 3.89,12.4 5.16,5.16 0 0 1 2.36,0.08 c 1.82,0.5 3.3,2 4.4,4.48 2.9,6.53 4.9,25 5,25.82 a 1,1 0 0 1 -0.84,1.09 l -4.81,0.75 v 0 a 17.29,17.29 0 0 0 -4,1.41 c -0.69,0.31 -1.35,0.61 -2,0.85 l -14,5.27 c -1.74,0.65 -3.76,1.55 -5.89,2.49 -6.25,2.71 -13.86,6.07 -20.46,6.07 z m -12.1,-8.45 a 22.73,22.73 0 0 0 6.47,5.28 12.55,12.55 0 0 0 5,1.17 v 0 c 6.29,0.23 14,-3.18 20.14,-5.91 2.15,-1 4.19,-1.86 6,-2.53 l 14.05,-5.27 c 0.6,-0.23 1.24,-0.51 1.88,-0.8 a 18,18 0 0 1 4.46,-1.56 v 0.08 c 0.65,-0.18 1.81,-0.37 3.85,-0.68 -0.45,-3.91 -2.3,-18.84 -4.72,-24.27 -0.84,-1.89 -1.87,-3 -3.08,-3.37 a 3.73,3.73 0 0 0 -2.81,0.49 1,1 0 0 1 -1.18,0 1,1 0 0 1 -0.33,-1.13 11.14,11.14 0 0 0 -1.78,-11.21 c -0.85,1.43 -2.7,3.6 -6.62,5.59 -3,1.55 -6.78,0.31 -11.12,-1.13 -5.13,-1.7 -10.95,-3.63 -16.84,-1.27 -6.65,2.66 -8,9.94 -5.86,15.76 A 1,1 0 0 1 135,92.5 1,1 0 0 1 134.36,93 c -3.92,1 -7,2.06 -8.6,6.11 a 20.44,20.44 0 0 0 -0.86,7.45 c 0,1 0,2.07 0,3.11 -0.1,1.94 -0.63,6.14 -3.31,8.69 a 17.12,17.12 0 0 0 9.89,-1.54 1,1 0 0 1 1.17,0.21 1,1 0 0 1 0.15,1.17 9.21,9.21 0 0 1 -5.25,4.25 z" />
    <path
       style="stroke-width:0.413844"
       id="path28"
       fill="#f56132"
       d="m 156.07,147.67 c 0.14,-0.06 4.58,-1.76 5.07,-1.56 0.49,0.2 5.56,15.62 17.93,12 8.26,-2.44 2.55,-17.5 2.55,-18.75 l 4.21,-1.43 c 5.95,6.84 9.47,20.1 10.23,28.72 0.41,4.64 1.43,9.33 5.36,20.88 L 163,200.56 152.58,170 c 5.36,-2.54 9.13,-8.58 3.49,-22.33 z" />
    <path
       style="stroke-width:0.413844"
       id="path30"
       fill="#093f68"
       d="m 163,201.56 a 1,1 0 0 1 -0.94,-0.67 c -10.4,-30.59 -10.4,-30.6 -10.41,-30.61 a 1,1 0 0 1 0.53,-1.21 c 6.46,-3 7.46,-10.1 3,-21 a 1,1 0 0 1 0.54,-1.3 c 0,0 4.78,-2 5.84,-1.56 0.42,0.17 0.54,0.43 1,1.31 4.26,9 9.75,12.56 16.31,10.62 6,-1.77 3.26,-12.06 2.23,-15.94 a 8.72,8.72 0 0 1 -0.4,-1.86 1,1 0 0 1 0.68,-0.94 l 4.21,-1.43 a 1,1 0 0 1 1.07,0.29 c 5.76,6.62 9.63,19.75 10.48,29.29 0.39,4.41 1.35,9 5.31,20.65 a 1,1 0 0 1 -0.63,1.26 l -38.52,13.05 a 0.86,0.86 0 0 1 -0.3,0.05 z m -9.17,-31.09 c 1.46,4.3 8.23,24.23 9.8,28.82 l 36.54,-12.42 c -3.75,-11.14 -4.69,-15.72 -5.09,-20.16 -0.79,-9 -4.32,-21.2 -9.56,-27.65 l -2.72,0.93 c 0.05,0.21 0.12,0.45 0.18,0.68 1.16,4.39 4.24,16.05 -3.6,18.37 -7.66,2.26 -13.94,-1.67 -18.69,-11.69 a 1.3,1.3 0 0 1 -0.08,-0.17 c -0.78,0.2 -2.22,0.7 -3.21,1.06 5.27,13.61 1.2,19.6 -3.59,22.23 z M 161,147.1 Z" />
    <path
       style="stroke-width:0.413844"
       id="path32"
       fill="#ffc9b0"
       d="m 168.54,146 -1.78,-4.64 8,-3.09 1.79,4.64" />
    <path
       style="stroke-width:0.413844"
       id="path34"
       fill="#093f68"
       d="m 168.54,147 a 1,1 0 0 1 -0.93,-0.64 l -1.79,-4.64 a 1,1 0 0 1 0.58,-1.29 l 8,-3.1 a 1,1 0 0 1 0.76,0 1,1 0 0 1 0.53,0.56 l 1.79,4.64 a 1,1 0 0 1 -0.57,1.29 1,1 0 0 1 -1.3,-0.57 l -1.43,-3.71 -6.13,2.46 1.43,3.7 a 1,1 0 0 1 -0.58,1.3 1.09,1.09 0 0 1 -0.36,0 z" />
    <path
       style="stroke-width:0.413844"
       id="path36"
       fill="#ffc9b0"
       d="m 147.56,124.76 c 1.44,3.72 -0.89,8.09 -5.2,9.75 -4.31,1.66 -9.72,-2 -11.16,-5.69 -1.44,-3.69 1.65,-6.14 6,-7.8 4.35,-1.66 8.93,-0.02 10.36,3.74 z" />
    <path
       style="stroke-width:0.413844"
       id="path38"
       fill="#093f68"
       d="m 140.12,135.91 a 11.4,11.4 0 0 1 -9.85,-6.73 c -1.46,-3.8 0.73,-6.86 6.53,-9.1 4.81,-1.85 10.06,0.08 11.7,4.32 v 0 c 1.62,4.23 -1,9.18 -5.79,11 a 7.19,7.19 0 0 1 -2.59,0.51 z m 0.44,-14.53 a 8.43,8.43 0 0 0 -3,0.57 c -6.16,2.37 -6,4.85 -5.38,6.51 1.31,3.42 6.22,6.51 9.86,5.11 3.64,-1.4 5.86,-5.25 4.63,-8.46 v 0 a 6.29,6.29 0 0 0 -6.11,-3.73 z" />
    <path
       style="stroke-width:0.413844"
       id="path40"
       fill="#ffc9b0"
       d="m 192.31,105.28 c 1.43,3.73 -0.15,10 -4.46,11.7 -4.31,1.7 -9,0 -10.4,-3.74 -1.4,-3.74 0.9,-8.09 5.21,-9.75 4.31,-1.66 8.21,-1.93 9.65,1.79 z" />
    <path
       style="stroke-width:0.413844"
       id="path42"
       fill="#093f68"
       d="m 184.45,118.63 a 9.53,9.53 0 0 1 -3.22,-0.56 7.56,7.56 0 0 1 -4.23,-10.95 10,10 0 0 1 5.28,-4.56 13.89,13.89 0 0 1 6.37,-1.19 5.29,5.29 0 0 1 4.57,3.55 v 0 c 1.67,4.34 -0.32,11.18 -5,13 a 10.53,10.53 0 0 1 -3.77,0.71 z m 3.35,-15.3 a 14,14 0 0 0 -4.79,1.1 8,8 0 0 0 -4.23,3.63 5.56,5.56 0 0 0 3.13,8.13 8,8 0 0 0 5.58,-0.14 c 3.64,-1.4 5.2,-7 3.88,-10.41 a 3.26,3.26 0 0 0 -2.92,-2.28 c -0.21,-0.02 -0.45,-0.03 -0.65,-0.03 z" />
    <path
       style="stroke-width:0.413844"
       id="path44"
       fill="#ffc9b0"
       d="m 171.18,140.9 v 0 a 25.25,25.25 0 0 1 -32.63,-14.54 l -4.21,-10.93 c -2.18,-5.67 2.37,-19.59 8,-21.77 0,0 3,5 13.68,6.28 7.49,0.89 16.34,-2.27 22.18,-10.91 l 7.39,19.2 a 25.25,25.25 0 0 1 -14.41,32.67 z" />
    <path
       style="stroke-width:0.413844"
       id="path46"
       fill="#093f68"
       d="m 162.13,143.6 a 26.36,26.36 0 0 1 -24.51,-16.88 l -4.21,-10.93 c -1.34,-3.48 -0.33,-8.94 1.06,-12.89 1.86,-5.26 4.68,-9.07 7.54,-10.17 a 1,1 0 0 1 1.22,0.42 c 0,0 3,4.61 12.94,5.8 6.33,0.75 15.24,-1.61 21.23,-10.48 a 1,1 0 0 1 1.76,0.2 l 7.4,19.2 A 26.26,26.26 0 0 1 162.13,143.6 Z M 142.07,94.92 c -2.09,1.23 -4.23,4.44 -5.71,8.65 -1.6,4.54 -2,9.06 -1.08,11.5 l 4.2,10.93 a 24.223192,24.223192 0 1 0 45.21,-17.41 L 178,91.11 a 24.44,24.44 0 0 1 -22,9.82 c -8.76,-1.03 -12.62,-4.48 -13.93,-6.01 z" />
    <path
       style="stroke-width:0.413844"
       id="path48"
       fill="#093f68"
       d="m 166,105 a 2,2 0 0 1 -0.7,-3.87 l 10.4,-3.93 a 2,2 0 0 1 1.41,3.74 l -10.42,3.94 A 1.94,1.94 0 0 1 166,105 Z" />
    <path
       style="stroke-width:0.413844"
       id="path50"
       fill="#093f68"
       d="m 140.76,114.72 a 2,2 0 0 1 -0.7,-3.87 l 10.41,-3.93 a 2.00025,2.00025 0 1 1 1.42,3.74 l -10.42,3.93 a 1.94,1.94 0 0 1 -0.71,0.13 z" />
    <path
       style="stroke-width:0.413844"
       id="path52"
       fill="#093f68"
       d="m 165.2,123.75 a 1.0045024,1.0045024 0 0 1 -0.19,-2 11.34,11.34 0 0 0 3,-1.06 17.68,17.68 0 0 0 -3.68,-4.15 1,1 0 0 1 1.32,-1.5 c 1.69,1.49 4.51,4.25 4.41,5.94 a 1.47,1.47 0 0 1 -0.64,1.17 12.14,12.14 0 0 1 -4,1.56 z m 2.84,-2.84 z" />
    <path
       style="stroke-width:0.413844"
       id="path54"
       fill="#68e1fd"
       d="m 306.88,122.5 a 106.89,106.89 0 0 1 -213.77,0 c 22.92,28.94 62.23,48 106.89,48 44.66,0 84,-19.07 106.88,-48 z" />
    <path
       style="stroke-width:0.413844"
       id="path56"
       fill="#093f68"
       d="M 200,230.07 A 108.08,108.08 0 0 1 92.11,122.49 a 1,1 0 0 1 0.67,-0.95 1,1 0 0 1 1.11,0.33 c 23.63,29.83 63.3,47.64 106.11,47.64 42.81,0 82.47,-17.81 106.1,-47.63 a 1,1 0 0 1 1.11,-0.33 1,1 0 0 1 0.67,1 A 108.07,108.07 0 0 1 200,230.07 Z M 94.16,125.36 a 105.88,105.88 0 0 0 211.67,0 C 281.64,154.3 242.32,171.5 200,171.5 c -42.32,0 -81.66,-17.19 -105.84,-46.14 z" />
    <path
       style="stroke-width:0.413844"
       id="path58"
       fill="#093f68"
       d="m 200,171.51 c -26.56,0 -52.07,-6.69 -73.76,-19.35 C 105,139.77 88.86,122.59 79.57,102.47 a 1.0022475,1.0022475 0 0 1 1.82,-0.84 c 9.11,19.74 25,36.62 45.85,48.8 21.4,12.48 46.55,19.08 72.76,19.08 26.21,0 51.36,-6.6 72.76,-19.08 20.88,-12.18 36.74,-29.06 45.85,-48.8 a 1.0022475,1.0022475 0 1 1 1.82,0.84 c -9.29,20.12 -25.43,37.3 -46.67,49.69 -21.69,12.66 -47.2,19.35 -73.76,19.35 z" />
    <path
       style="stroke-width:0.413844"
       id="path60"
       fill="#093f68"
       d="m 149.58,120.78 a 8.77,8.77 0 0 1 -3.17,-0.57 1.0027587,1.0027587 0 0 1 0.75,-1.86 6.56,6.56 0 0 0 8.14,-3 1.0034441,1.0034441 0 1 1 1.74,1 8.32,8.32 0 0 1 -7.46,4.43 z" />
    <path
       style="stroke-width:0.413844"
       id="path62"
       fill="#093f68"
       d="m 175,113.44 a 10.5,10.5 0 0 1 -5.49,-1.88 1,1 0 0 1 -0.23,-1.39 1,1 0 0 1 1.4,-0.23 c 0.06,0 2.88,2 5.41,1.37 a 4.88,4.88 0 0 0 3,-3 1.004353,1.004353 0 0 1 1.82,0.85 6.76,6.76 0 0 1 -4.37,4 6.62,6.62 0 0 1 -1.54,0.28 z" />
    <path
       style="stroke-width:0.413844"
       id="path64"
       fill="#093f68"
       d="m 161.49,132.34 h -0.4 a 1,1 0 0 1 -1,-1.05 1,1 0 0 1 1.05,-0.95 21.1,21.1 0 0 0 13.2,-4.83 1,1 0 0 1 1.41,0.12 1,1 0 0 1 -0.12,1.41 22.88,22.88 0 0 1 -14.14,5.3 z" />
    <path
       style="stroke-width:0.413844"
       id="path66"
       fill="#ffc9b0"
       d="m 164.56,190 -15.25,-21.89 7,-4 5.7,0.85 a 58.62,58.62 0 0 0 -1.44,-9.5 c -1.26,-5.56 -4.48,-7.8 -4.48,-7.8 0,0 -29.75,9 -27.1,17.91 2.65,8.91 23.61,28.63 23.61,28.63 0,0 -0.35,6.19 5.28,7.7 0,0 -5.25,4.13 -1.69,5.63 3.56,1.5 15.41,-2.44 15.5,-8.07 0.09,-5.63 -7.13,-9.46 -7.13,-9.46 z" />
    <path
       style="stroke-width:0.413844"
       id="path68"
       fill="#093f68"
       d="m 158.22,208.86 a 6.49,6.49 0 0 1 -2.44,-0.4 2.69,2.69 0 0 1 -1.83,-2.12 c -0.2,-1.48 1,-3 2,-4.08 a 8.61,8.61 0 0 1 -4.41,-7.63 c -2.76,-2.63 -21,-20.23 -23.56,-28.76 -2.85,-9.57 24.63,-18.2 27.77,-19.16 a 1,1 0 0 1 0.86,0.14 c 0.15,0.1 3.55,2.53 4.89,8.4 a 60.09,60.09 0 0 1 1.46,9.68 1,1 0 0 1 -0.33,0.79 1,1 0 0 1 -0.82,0.24 l -5.35,-0.8 -5.74,3.29 14.5,20.8 c 1.28,0.73 7.5,4.57 7.42,10.23 0,2.21 -1.5,4.32 -4.24,6.11 a 20.61,20.61 0 0 1 -10.18,3.27 z m -2.37,-60.08 c -11.14,3.45 -27.62,10.82 -25.92,16.51 2.55,8.54 23.13,28 23.34,28.19 a 1,1 0 0 1 0.31,0.79 c 0,0.21 -0.22,5.4 4.54,6.67 a 1,1 0 0 1 0.72,0.77 1,1 0 0 1 -0.36,1 c -1.14,0.9 -2.65,2.57 -2.54,3.38 0,0.2 0.23,0.38 0.62,0.55 1.83,0.77 7,-0.27 10.77,-2.7 2.13,-1.39 3.31,-3 3.34,-4.47 0.07,-4.94 -6.51,-8.51 -6.58,-8.55 a 1,1 0 0 1 -0.35,-0.31 L 148.49,168.7 a 1,1 0 0 1 -0.16,-0.79 1,1 0 0 1 0.48,-0.65 l 7,-4 a 1.06,1.06 0 0 1 0.65,-0.12 l 4.46,0.67 a 65.29,65.29 0 0 0 -1.32,-8.11 13.3,13.3 0 0 0 -3.75,-6.92 z" />
  </g>
</svg>
