<?xml version="1.0" encoding="UTF-8" standalone="no"?>
<svg
   xmlns:dc="http://purl.org/dc/elements/1.1/"
   xmlns:cc="http://creativecommons.org/ns#"
   xmlns:rdf="http://www.w3.org/1999/02/22-rdf-syntax-ns#"
   xmlns:svg="http://www.w3.org/2000/svg"
   xmlns="http://www.w3.org/2000/svg"
   xmlns:sodipodi="http://sodipodi.sourceforge.net/DTD/sodipodi-0.dtd"
   xmlns:inkscape="http://www.inkscape.org/namespaces/inkscape"
   inkscape:version="1.0 (4035a4fb49, 2020-05-01)"
   sodipodi:docname="target.svg"
   id="svg47"
   version="1.1"
   viewBox="0 0 400 300">
  <metadata
     id="metadata53">
    <rdf:RDF>
      <cc:Work
         rdf:about="">
        <dc:format>image/svg+xml</dc:format>
        <dc:type
           rdf:resource="http://purl.org/dc/dcmitype/StillImage" />
      </cc:Work>
    </rdf:RDF>
  </metadata>
  <defs
     id="defs51" />
  <sodipodi:namedview
     inkscape:current-layer="_107_target_outline"
     inkscape:window-maximized="1"
     inkscape:window-y="-8"
     inkscape:window-x="-8"
     inkscape:cy="150"
     inkscape:cx="200"
     inkscape:zoom="2.5475"
     showgrid="false"
     id="namedview49"
     inkscape:window-height="1017"
     inkscape:window-width="1920"
     inkscape:pageshadow="2"
     inkscape:pageopacity="0"
     guidetolerance="10"
     gridtolerance="10"
     objecttolerance="10"
     borderopacity="1"
     bordercolor="#666666"
     pagecolor="#ffffff" />
  <g
     data-name="#107_target_outline"
     id="_107_target_outline">
    <path
       style="stroke-width:0.999997"
       id="path2"
       fill="#093f68"
       d="M 149.51609,293.74368 V 8.1665537 A 4.8910672,4.6492918 0 0 0 145.0614,3.4308439 4.7092432,4.4764557 0 0 0 140.0976,7.9072995 V 293.74368 a 4.7092432,4.4764557 0 0 0 4.70925,4.47646 v 0 a 4.7092432,4.4764557 0 0 0 4.70924,-4.47646 z" />
    <path
       style="stroke-width:0.999997"
       id="path4"
       fill="#093f68"
       d="m 144.80685,299.94849 a 6.5274838,6.2048169 0 0 1 -6.52749,-6.20481 V 7.9072995 a 6.5093013,6.1875332 0 0 1 6.87295,-6.2048169 6.672943,6.3430858 0 0 1 6.18202,6.4640711 V 293.74368 a 6.5274838,6.2048169 0 0 1 -6.52748,6.20481 z m 0,-294.7892849 a 2.8546378,2.7135272 0 0 0 -2.89101,2.7480944 V 293.74368 a 2.8910057,2.7480973 0 0 0 5.78201,0 V 8.1665537 a 3.0728266,2.9209305 0 0 0 -2.72736,-3.0073486 z" />
    <path
       style="stroke-width:0.999997"
       id="path6"
       fill="#093f68"
       d="M 57.604021,295.0918 C 73.968188,246.12733 88.695932,203.48866 103.3146,162.35366 a 4.8728849,4.6320081 0 0 0 -2.41827,-5.75545 4.7092432,4.4764557 0 0 0 -6.418391,2.64439 C 79.804738,200.4813 65.076993,243.27554 48.621912,292.32643 a 4.7092432,4.4764557 0 0 0 4.491054,5.84185 v 0 a 4.7092432,4.4764557 0 0 0 4.491055,-3.07648 z" />
    <path
       style="stroke-width:0.999997"
       id="path8"
       fill="#093f68"
       d="m 53.112966,299.94849 a 6.5274838,6.2048169 0 0 1 -6.218383,-8.10601 C 63.404209,242.51505 77.986497,200.23934 92.750612,158.75867 a 6.5638487,6.2393841 0 0 1 8.909378,-3.66412 6.7456726,6.4122202 0 0 1 3.38193,7.88132 C 90.314164,204.45654 75.786429,246.55942 59.331348,295.67945 v 0 a 6.4729365,6.152966 0 0 1 -6.218382,4.26904 z M 98.93264,157.92905 a 2.8728201,2.7308107 0 0 0 -2.72737,1.86664 C 81.44116,201.27635 66.877044,243.58664 50.34924,292.8795 a 2.8910027,2.7480944 0 0 0 0.436378,2.47156 2.8182729,2.6789599 0 0 0 2.327348,1.12344 2.9455498,2.7999453 0 0 0 2.763726,-1.91849 v 0 C 72.240861,245.40142 86.786778,203.21212 101.60545,161.7833 a 2.8910027,2.7480944 0 0 0 -2.67281,-3.87152 z" />
    <path
       style="stroke-width:0.999997"
       id="path10"
       fill="#093f68"
       d="m 236.50072,298.22014 v 0 a 4.7274256,4.4937392 0 0 0 4.49105,-5.84187 C 224.62761,243.32738 209.84531,200.585 195.19029,159.39816 a 4.8183377,4.5801573 0 0 0 -5.12744,-3.16289 4.7092432,4.4764557 0 0 0 -3.85467,5.87642 c 14.63684,41.18684 29.36458,83.92922 45.7833,132.98011 a 4.745608,4.5110229 0 0 0 4.50924,3.12834 z" />
    <path
       style="stroke-width:0.999997"
       id="path12"
       fill="#093f68"
       d="m 236.50072,299.94849 a 6.5093013,6.1875332 0 0 1 -6.23656,-4.33818 C 213.7727,246.3693 199.22678,204.12815 184.48086,162.66476 a 6.4365717,6.1183988 0 0 1 0.63638,-5.18508 6.5093013,6.1875332 0 0 1 4.70925,-2.88636 6.6183959,6.291235 0 0 1 7.09113,4.32091 c 14.72775,41.48066 29.29186,83.72181 45.80149,133.08381 a 6.5274838,6.2048169 0 0 1 -6.21839,8.08872 z M 190.66287,157.92905 h -0.34547 a 2.909185,2.7653779 0 0 0 -2.40007,3.61228 c 14.76411,41.48067 29.31004,83.7391 45.81967,133.08381 a 2.9273674,2.7826616 0 0 0 2.76372,1.91849 2.8910027,2.7480944 0 0 0 2.74554,-3.595 C 222.75482,243.69034 208.20889,201.43191 193.46297,160.00309 a 3.0546442,2.9036469 0 0 0 -2.8001,-2.07404 z" />
    <ellipse
       ry="119.53347"
       rx="125.74953"
       style="stroke-width:0.999997"
       id="circle14"
       fill="#68e1fd"
       cy="141.18124"
       cx="144.80685" />
    <path
       style="stroke-width:0.999997"
       id="path16"
       fill="#093f68"
       d="M 144.80685,262.46034 A 127.58594,121.27911 0 1 1 272.3746,141.18123 127.7314,121.41738 0 0 1 144.80685,262.46034 Z m 0,-239.084206 A 123.94946,117.82239 0 1 0 268.73812,141.18123 124.07674,117.94337 0 0 0 144.80685,23.376134 Z" />
    <ellipse
       ry="99.052391"
       rx="104.20338"
       style="stroke-width:0.999997"
       id="circle18"
       fill="#ffffff"
       cy="141.18124"
       cx="144.80685" />
    <path
       style="stroke-width:0.999997"
       id="path20"
       fill="#093f68"
       d="m 144.80685,241.96197 a 106.02161,100.78074 0 1 1 106.0216,-100.78074 106.1307,100.88445 0 0 1 -106.0216,100.78074 z m 0,-198.087473 A 102.38513,97.324021 0 1 0 247.19197,141.18123 102.49422,97.427723 0 0 0 144.80685,43.874497 Z" />
    <ellipse
       ry="73.541771"
       rx="77.366135"
       style="stroke-width:0.999997"
       id="circle22"
       fill="#68e1fd"
       cy="141.18124"
       cx="144.80685" />
    <path
       style="stroke-width:0.999997"
       id="path24"
       fill="#093f68"
       d="m 144.80685,216.50322 a 79.202561,75.287416 0 1 1 79.11164,-75.32199 79.293473,75.373833 0 0 1 -79.11164,75.32199 z m 0,-147.100827 a 75.56608,71.830694 0 1 0 75.47517,71.778837 75.63881,71.899827 0 0 0 -75.47517,-71.813404 z" />
    <ellipse
       ry="50.295315"
       rx="52.910805"
       style="stroke-width:0.999997"
       id="circle26"
       fill="#ffffff"
       cy="141.18124"
       cx="144.80685" />
    <path
       style="stroke-width:0.999997"
       id="path28"
       fill="#093f68"
       d="m 144.80685,193.20491 a 54.729042,52.023674 0 1 1 54.71086,-52.02368 54.78359,52.075524 0 0 1 -54.71086,52.02368 z m 0,-100.573341 a 51.092562,48.566951 0 1 0 51.07438,48.549661 51.147108,48.618802 0 0 0 -51.07438,-48.549661 z" />
    <ellipse
       ry="27.861185"
       rx="29.310041"
       style="stroke-width:0.999997"
       id="circle30"
       fill="#68e1fd"
       cy="141.18124"
       cx="144.80685" />
    <path
       style="stroke-width:0.999997"
       id="path32"
       fill="#093f68"
       d="m 144.80685,170.77077 a 31.128279,29.589544 0 1 1 31.12828,-29.58954 31.164644,29.624112 0 0 1 -31.12828,29.58954 z m 0,-55.72236 a 27.491798,26.132822 0 1 0 27.49179,26.13282 27.528163,26.16739 0 0 0 -27.49179,-26.13282 z" />
    <polygon
       style="stroke-width:0.564101"
       transform="matrix(1.8182405,0,0,1.7283612,-227.00517,-108.42869)"
       id="polygon34"
       fill="#f56132"
       points="126.35,102.2 149.24,119.84 165.72,113.4 142.1,95.12 " />
    <path
       style="stroke-width:0.999997"
       id="path36"
       fill="#093f68"
       d="M 44.349046,100.42647 A 1.9455174,1.8493465 0 0 1 43.221738,100.0808 L 1.6203918,69.592513 A 1.8182406,1.7283612 0 0 1 1.98404,66.654299 L 30.62133,54.417501 a 1.8182406,1.7283612 0 0 1 1.81824,0.207403 l 42.946841,31.594444 a 1.8182406,1.7283612 0 0 1 -0.45456,2.990065 L 44.967248,100.34006 a 2.0546119,1.9530483 0 0 1 -0.618202,0.0864 z M 6.1659937,68.590063 44.567236,96.745067 70.586258,87.083529 31.184984,57.977925 Z" />
    <polygon
       style="stroke-width:0.564101"
       transform="matrix(1.8182405,0,0,1.7283612,-227.00517,-108.42869)"
       id="polygon38"
       fill="#f56132"
       points="147.27,79.7 167.57,99.1 165.72,113.4 141.76,94.13 " />
    <path
       style="stroke-width:0.999997"
       id="path40"
       fill="#093f68"
       d="m 74.313654,89.295831 a 1.8182406,1.7283612 0 0 1 -1.145491,-0.38024 L 29.530385,55.61007 A 1.8182406,1.7283612 0 0 1 28.966731,53.639738 L 38.985236,28.71677 a 1.8182406,1.7283612 0 0 1 1.309134,-1.071584 1.8182406,1.7283612 0 0 1 1.800058,0.466657 l 36.928465,33.530209 a 1.8182406,1.7283612 0 0 1 0.545474,1.469106 l -3.38193,24.715565 a 1.8182406,1.7283612 0 0 1 -1.12731,1.38269 1.8182406,1.7283612 0 0 1 -0.745473,0.08642 z M 33.003225,53.691589 73.004516,84.300867 75.840972,63.560532 41.548956,32.45003 Z" />
    <path
       style="stroke-width:0.999997"
       id="path42"
       fill="#ffbc0e"
       d="m 145.27959,145.6404 a 4.2365006,4.0270816 0 0 1 -2.61828,-0.88146 L 13.184402,46.95098 A 4.2365006,4.0270816 0 1 1 18.4573,40.659746 l 129.45874,97.842524 a 4.2365006,4.0270816 0 0 1 -2.63645,7.1727 z" />
    <path
       style="stroke-width:0.999997"
       id="path44"
       fill="#093f68"
       d="m 145.27959,147.36877 a 6.000194,5.7035922 0 0 1 -3.74558,-1.26171 L 12.057092,48.299102 a 6.0547413,5.7554429 0 0 1 -0.872754,-8.088731 6.0729237,5.7727266 0 0 1 8.491183,-0.933314 L 149.15244,137.13687 a 6.0547413,5.7554429 0 0 1 -3.78194,10.24917 z M 15.820851,41.472075 a 2.41826,2.2987204 0 0 0 -1.490957,4.096217 L 143.78863,143.41082 a 2.4728072,2.3505713 0 0 0 3.38193,-0.36296 2.41826,2.2987204 0 0 0 -0.38183,-3.23204 L 17.32999,41.938732 a 2.4909896,2.3678549 0 0 0 -1.509139,-0.43209 z" />
  </g>
</svg>
